<?xml version="1.0" encoding="utf-8"?>
<!-- Generator: Adobe Illustrator 19.2.0, SVG Export Plug-In . SVG Version: 6.00 Build 0)  -->
<svg version="1.1" id="Layer_1" xmlns="http://www.w3.org/2000/svg" xmlns:xlink="http://www.w3.org/1999/xlink" x="0px" y="0px"
	 viewBox="0 0 1066.8 477.2" style="enable-background:new 0 0 1066.8 477.2;" xml:space="preserve">
<style type="text/css">
	.st0{fill:#0288D1;}
	.st1{opacity:0.13;}
</style>
<g id="rollercoaster_1_">
	<g>
		<path class="st0" d="M86.5,435.3c-5.3,0-10.4-1.6-15.2-4.7l7-11c4,2.6,7.9,3.2,12.3,2.1c21.4-5.6,45.5-50.9,61.5-80.9
			c5.4-10.2,10.1-19,14.2-25.5l0.8-1.3c30.1-48.3,45.3-72.5,63-70.5c13.2,1.5,23.1,17,36.5,57.2c1.3,3.8,2.8,9.5,4.6,16
			c4.6,17.1,14.3,52.6,23.3,58.3c23.9,15.1,53,15.6,75.8,1.3c16.9-10.6,31.5-21.6,44.4-31.4c25.7-19.5,44.3-33.6,60-26.3
			c14.1,6.6,23.7,27.5,27.9,111.5l-13,0.7c-2-39.9-6.3-93.8-20.4-100.4c-8.5-4-26.2,9.4-46.6,24.9c-13.1,9.9-27.9,21.2-45.3,32
			c-27.1,17-61.4,16.5-89.6-1.3c-12.2-7.7-20.3-34.4-28.9-65.9c-1.7-6.3-3.2-11.8-4.4-15.3c-10.5-31.4-19.2-47.6-25.7-48.4
			c-2.6-0.3-7.7,1.9-17.4,14.3c-8.9,11.3-19.5,28.5-33.1,50.1l-0.8,1.3c-3.8,6.1-8.4,14.8-13.7,24.7c-19,35.8-42.8,80.3-69.6,87.4
			C91.4,435,89,435.3,86.5,435.3z"/>
	</g>
	<g>
		<rect x="73.8" y="425.2" class="st0" width="2" height="32.6"/>
	</g>
	<g>
		<rect x="90.2" y="428.3" class="st0" width="2" height="29.5"/>
	</g>
	<g>
		<rect x="106.6" y="419.2" class="st0" width="2" height="38.6"/>
	</g>
	<g>
		<rect x="123" y="400.8" class="st0" width="2" height="57"/>
	</g>
	<g>
		<rect x="139.4" y="375.5" class="st0" width="2" height="82.3"/>
	</g>
	<g>
		<rect x="155.8" y="345.8" class="st0" width="2" height="112"/>
	</g>
	<g>
		<rect x="172.2" y="314" class="st0" width="2" height="143.8"/>
	</g>
	<g>
		<rect x="188.6" y="290.5" class="st0" width="2" height="167.3"/>
	</g>
	<g>
		<rect x="205" y="266.8" class="st0" width="2" height="191"/>
	</g>
	<g>
		<rect x="221.4" y="249.9" class="st0" width="2" height="207.9"/>
	</g>
	<g>
		<rect x="237.8" y="249.9" class="st0" width="2" height="207.9"/>
	</g>
	<g>
		<rect x="254.2" y="287.9" class="st0" width="2" height="169.9"/>
	</g>
	<g>
		<rect x="270.6" y="340.2" class="st0" width="2" height="117.6"/>
	</g>
	<g>
		<rect x="287" y="377.9" class="st0" width="2" height="79.9"/>
	</g>
	<g>
		<rect x="303.4" y="393" class="st0" width="2" height="64.8"/>
	</g>
	<g>
		<rect x="319.8" y="393" class="st0" width="2" height="64.8"/>
	</g>
	<g>
		<rect x="336.1" y="393" class="st0" width="2" height="64.8"/>
	</g>
	<g>
		<rect x="352.5" y="393" class="st0" width="2" height="64.8"/>
	</g>
	<g>
		<rect x="368.9" y="384.1" class="st0" width="2" height="73.7"/>
	</g>
	<g>
		<rect x="385.3" y="372.8" class="st0" width="2" height="85"/>
	</g>
	<g>
		<rect x="401.7" y="362.3" class="st0" width="2" height="95.5"/>
	</g>
	<g>
		<rect x="418.1" y="349.7" class="st0" width="2" height="108.1"/>
	</g>
	<g>
		<rect x="434.5" y="337.5" class="st0" width="2" height="120.3"/>
	</g>
	<g>
		<rect x="450.9" y="327.2" class="st0" width="2" height="130.6"/>
	</g>
	<g>
		<rect x="467.3" y="323.5" class="st0" width="2" height="134.3"/>
	</g>
	<g>
		<rect x="483.7" y="337.5" class="st0" width="2" height="120.3"/>
	</g>
</g>
<g id="ferris_1_">
	<g>
		<g>
			<polygon class="st0" points="122.2,390.9 79.9,371.8 37.6,390.9 9.6,470.5 79.9,470.5 150.1,470.5 			"/>
		</g>
		<g>
			<g>
				<path class="st0" d="M122,391l-5.3-2.2l-5.3-2.3c-3.6-1.5-7.1-3-10.7-4.5l-10.6-4.6l-10.6-4.6h0.9l-10.5,4.9
					c-3.5,1.6-7,3.2-10.5,4.8l-10.6,4.8L38.1,392l0.7-0.7l-1.8,5c-0.6,1.7-1.2,3.3-1.8,5l-3.7,9.9L24.2,431l-1.8,5l-1.8,5
					c-0.6,1.7-1.2,3.3-1.8,5l-1.8,5c-1.2,3.3-2.3,6.6-3.5,10c-1.2,3.3-2.3,6.6-3.5,10l-0.5-0.6c2.9,0,5.9,0,8.8-0.1l8.8-0.1
					l17.6-0.3l17.6-0.2l17.6-0.1l35.1-0.2h17.6l17.6,0.1l-1.3,1.9l-3.4-10l-3.4-10l-3.4-10c-1.1-3.3-2.3-6.7-3.4-10l-6.7-20l-3.3-10
					l-1.6-5L122,391z M122.3,390.8l1.9,5l1.9,4.9l3.7,9.9l7.3,19.8c1.2,3.3,2.4,6.6,3.6,9.9l3.6,9.9l3.6,9.9l3.6,9.9l0.7,1.9h-2
					l-17.6,0.1H115l-35.1-0.2l-17.6-0.1l-17.6-0.2l-17.6-0.3l-8.8-0.1c-2.9,0-5.9-0.1-8.8-0.1H8.8l0.2-0.6c1.2-3.3,2.4-6.6,3.5-9.9
					c1.2-3.3,2.3-6.6,3.5-10l1.7-5c0.6-1.7,1.1-3.3,1.7-5l1.7-5l1.7-5l6.7-20l3.3-10c0.6-1.7,1.1-3.3,1.7-5l1.7-5l0.2-0.5l0.5-0.2
					l10.6-4.8l10.6-4.7c3.5-1.6,7.1-3.2,10.6-4.7l10.6-4.7l0.4-0.2l0.4,0.2l10.5,4.9l10.5,4.9c3.5,1.6,7,3.3,10.5,5l5.2,2.5
					L122.3,390.8z"/>
			</g>
		</g>
	</g>
	<g class="st1">
		<g>
			<polygon class="st0" points="122.6,390.9 80.3,371.8 80.3,470.5 150.5,470.5 			"/>
		</g>
		<g>
			<g>
				<path class="st0" d="M122.4,391c-1.8-0.7-3.6-1.4-5.3-2.2c-1.8-0.7-3.6-1.5-5.4-2.2l-5.3-2.2l-5.3-2.3l-10.7-4.6l-10.6-4.6
					l1.7-1.1l0.1,12.3c0,2.1,0,4.1,0,6.2s0,4.1,0,6.2l-0.1,6.2l-0.1,6.2L81,421.2l-0.1,6.2c-0.1,2.1-0.1,4.1-0.1,6.2
					s-0.1,4.1-0.1,6.2v6.2v6.2c0,2.1,0,4.1,0,6.2s0,4.1,0.1,6.2l0.1,6.2l-0.7-0.7l17.6-0.3l8.8-0.1l8.8-0.1l17.6-0.1l8.8-0.1h4.4
					h4.4l-1.4,2c-1.2-3.3-2.4-6.6-3.5-10l-3.4-10c-1.2-3.3-2.3-6.7-3.4-10l-1.7-5l-1.7-5l-3.3-10l-3.3-10c-1.1-3.3-2.2-6.7-3.2-10
					l-1.6-5C123.5,394.3,123,392.7,122.4,391z M122.7,390.8c0.6,1.6,1.3,3.3,1.9,4.9l1.9,4.9c1.3,3.3,2.5,6.6,3.8,9.9l3.7,9.9
					l3.7,9.9l1.8,5l1.8,5c1.2,3.3,2.4,6.6,3.6,9.9l3.6,9.9c1.2,3.3,2.3,6.6,3.5,10l0.7,2h-2.1h-4.4h-4.4L133,472l-17.6-0.1l-8.8-0.1
					l-8.8-0.1l-17.6-0.3h-0.7v-0.7l0.1-6.2c0-2.1,0.1-4.1,0.1-6.2s0-4.1,0-6.2v-6.2v-6.2c0-2.1,0-4.1-0.1-6.2c0-2.1,0-4.1-0.1-6.2
					l-0.1-6.2l-0.3-12.3l-0.1-6.2l-0.1-6.2c0-2.1,0-4.1,0-6.2s0-4.1,0-6.2l0.1-12.3v-1.8l1.7,0.8l10.5,4.9l10.5,4.9l5.2,2.5l5.2,2.5
					c1.7,0.8,3.5,1.7,5.2,2.6C119.2,389,120.9,389.9,122.7,390.8L122.7,390.8L122.7,390.8z"/>
			</g>
		</g>
	</g>
	<g>
		<g>
			<path class="st0" d="M147.9,475.6H7.2c-2.6,0-4.8-2.1-4.8-4.8v-5.1c0-2.6,2.1-4.8,4.8-4.8h140.6c2.6,0,4.8,2.1,4.8,4.8v5.1
				C152.6,473.4,150.5,475.6,147.9,475.6z"/>
		</g>
		<g>
			<path class="st0" d="M147.9,475.8H7.2c-2.7,0-5-2.2-5-5v-5.1c0-2.7,2.2-5,5-5h140.6c2.7,0,5,2.2,5,5v5.1
				C152.8,473.5,150.6,475.8,147.9,475.8z M7.2,461.1c-2.5,0-4.6,2.1-4.6,4.6v5.1c0,2.5,2.1,4.6,4.6,4.6h140.6
				c2.5,0,4.6-2.1,4.6-4.6v-5.1c0-2.5-2.1-4.6-4.6-4.6H7.2z"/>
		</g>
	</g>
	<g>
		<rect y="470.5" class="st0" width="154.9" height="6.6"/>
	</g>
</g>
<path id="castle_1_" class="st0" d="M1065.5,304.2c-5.3-4.5-23.2-50.4-27.2-68.7l-0.6,2.8c-3,14.9-11.7,37.6-14.2,33
	c-2.9-5.5-14.6-21.5-14.6-21.5l-16.5,0.1c0,0-17.9,44.4-28.4,51.2c-11.6-4.2-41.4-49.5-42.8-49.5c-1.4,0-10,0-10,0s-3.1-31-0.1-32.6
	s-12.8-63.1-12.8-75.6c0,12.2-11.4,75.4-8.3,75.7c3.1,0.3,0.1,32.6,0.1,32.6l-31.1,0.1l-0.6-180.4h5.8c0,0-24-40.6-28-71.3l-1,4.6
	c-6,30.5-24.5,66.9-24.5,66.9h4.5v124l-25.1-45.1h-8c0,0-27.2,52-32.1,57h-11.5c-3-5-8.4-26.3-8.4-26.3s-5.9,39.7-14.9,49.5
	c0,18.9,0,55.8,0,55.8h-13v-33.3c0,0,0-25.4,0-27.1s2.8-7.3,2.8-8.5c0-1.1-23.8-40.5-28.8-57.7l-1.3-3.1
	c-3,15.2-30.5,52.7-35.1,59.3c-1.3,2.9,6.3,10,6.3,10s0,16.4,0,27.1c2,4.6,4,11,4,11v17.3h-10.8c-1.8,0-3.6,1.1-4.8,2.4l-11.3,11.6
	h-11c-1.7,0-3.1,1.2-3.1,2.8v3.5c0,0-19.8,29.7-24,29.7s-6,0-6,0s0-6.8,0-10.1c0-3.3-15.5-15.9-15.5-15.9h-8.5v-4.7
	c0,0,2.9,0.8,4.2,0s-21.2-32.2-22.3-37.1c-0.5-2.3-0.9-4.5-1.9-5.2l-1,0.5c-1,0.8-1.3,2.3-2.1,4.7c-3.1,9.2-27.2,34.2-26.5,35.1
	s4.6,0,4.6,0v7.7H484c-2.9-7-2-34-2-34h-2.5c0,0-2.2,24.4-3,33.7c-0.8,9.3-21.6,50.2-21.6,50.2l0.2,67.7l607.3-1.9l-0.3-105.7
	l-0.1-7C1066.2,309,1068.3,306.6,1065.5,304.2z"/>
</svg>
