<?xml version="1.0" encoding="utf-8"?>
<!-- Generator: Adobe Illustrator 19.2.0, SVG Export Plug-In . SVG Version: 6.00 Build 0)  -->
<svg version="1.1" id="Layer_1" xmlns="http://www.w3.org/2000/svg" xmlns:xlink="http://www.w3.org/1999/xlink" x="0px" y="0px"
	 viewBox="0 0 1024 771" style="enable-background:new 0 0 1024 771;" xml:space="preserve">
<style type="text/css">
	.st0{fill:none;}
	.st1{fill:none;stroke:#1D1D1B;stroke-width:0.3;}
	.st2{fill:#03A9F4;}
	.st3{opacity:0.35;fill:url(#sky-pattern_3_);enable-background:new    ;}
	.st4{fill:#FFCA28;}
</style>
<pattern  y="771" width="57.6" height="57.6" patternUnits="userSpaceOnUse" id="sky-pattern_2_" viewBox="0 -57.6 57.6 57.6" style="overflow:visible;">
	<g>
		<rect y="-57.6" class="st0" width="57.6" height="57.6"/>
		<g>
			<rect y="-57.6" class="st0" width="57.6" height="57.6"/>
			<line class="st1" x1="52.5" y1="-3.6" x2="55.5" y2="-3.6"/>
			<line class="st1" x1="38.1" y1="-3.6" x2="41.1" y2="-3.6"/>
			<line class="st1" x1="23.7" y1="-3.6" x2="26.7" y2="-3.6"/>
			<line class="st1" x1="9.3" y1="-3.6" x2="12.3" y2="-3.6"/>
			<line class="st1" x1="45.3" y1="-10.8" x2="48.3" y2="-10.8"/>
			<line class="st1" x1="30.9" y1="-10.8" x2="33.9" y2="-10.8"/>
			<line class="st1" x1="16.5" y1="-10.8" x2="19.5" y2="-10.8"/>
			<line class="st1" x1="2.1" y1="-10.8" x2="5.1" y2="-10.8"/>
			<line class="st1" x1="52.5" y1="-18" x2="55.5" y2="-18"/>
			<line class="st1" x1="38.1" y1="-18" x2="41.1" y2="-18"/>
			<line class="st1" x1="23.7" y1="-18" x2="26.7" y2="-18"/>
			<line class="st1" x1="9.3" y1="-18" x2="12.3" y2="-18"/>
			<line class="st1" x1="45.3" y1="-25.2" x2="48.3" y2="-25.2"/>
			<line class="st1" x1="30.9" y1="-25.2" x2="33.9" y2="-25.2"/>
			<line class="st1" x1="16.5" y1="-25.2" x2="19.5" y2="-25.2"/>
			<line class="st1" x1="2.1" y1="-25.2" x2="5.1" y2="-25.2"/>
			<line class="st1" x1="52.5" y1="-32.4" x2="55.5" y2="-32.4"/>
			<line class="st1" x1="38.1" y1="-32.4" x2="41.1" y2="-32.4"/>
			<line class="st1" x1="23.7" y1="-32.4" x2="26.7" y2="-32.4"/>
			<line class="st1" x1="9.3" y1="-32.4" x2="12.3" y2="-32.4"/>
			<line class="st1" x1="45.3" y1="-39.6" x2="48.3" y2="-39.6"/>
			<line class="st1" x1="30.9" y1="-39.6" x2="33.9" y2="-39.6"/>
			<line class="st1" x1="16.5" y1="-39.6" x2="19.5" y2="-39.6"/>
			<line class="st1" x1="2.1" y1="-39.6" x2="5.1" y2="-39.6"/>
			<line class="st1" x1="52.5" y1="-46.8" x2="55.5" y2="-46.8"/>
			<line class="st1" x1="38.1" y1="-46.8" x2="41.1" y2="-46.8"/>
			<line class="st1" x1="23.7" y1="-46.8" x2="26.7" y2="-46.8"/>
			<line class="st1" x1="9.3" y1="-46.8" x2="12.3" y2="-46.8"/>
			<line class="st1" x1="45.3" y1="-54" x2="48.3" y2="-54"/>
			<line class="st1" x1="30.9" y1="-54" x2="33.9" y2="-54"/>
			<line class="st1" x1="16.5" y1="-54" x2="19.5" y2="-54"/>
			<line class="st1" x1="2.1" y1="-54" x2="5.1" y2="-54"/>
			<line class="st1" x1="54" y1="-2.1" x2="54" y2="-5.1"/>
			<line class="st1" x1="39.6" y1="-2.1" x2="39.6" y2="-5.1"/>
			<line class="st1" x1="25.2" y1="-2.1" x2="25.2" y2="-5.1"/>
			<line class="st1" x1="10.8" y1="-2.1" x2="10.8" y2="-5.1"/>
			<line class="st1" x1="46.8" y1="-9.3" x2="46.8" y2="-12.3"/>
			<line class="st1" x1="32.4" y1="-9.3" x2="32.4" y2="-12.3"/>
			<line class="st1" x1="18" y1="-9.3" x2="18" y2="-12.3"/>
			<line class="st1" x1="3.6" y1="-9.3" x2="3.6" y2="-12.3"/>
			<line class="st1" x1="54" y1="-16.5" x2="54" y2="-19.5"/>
			<line class="st1" x1="39.6" y1="-16.5" x2="39.6" y2="-19.5"/>
			<line class="st1" x1="25.2" y1="-16.5" x2="25.2" y2="-19.5"/>
			<line class="st1" x1="10.8" y1="-16.5" x2="10.8" y2="-19.5"/>
			<line class="st1" x1="46.8" y1="-23.7" x2="46.8" y2="-26.7"/>
			<line class="st1" x1="32.4" y1="-23.7" x2="32.4" y2="-26.7"/>
			<line class="st1" x1="18" y1="-23.7" x2="18" y2="-26.7"/>
			<line class="st1" x1="3.6" y1="-23.7" x2="3.6" y2="-26.7"/>
			<line class="st1" x1="54" y1="-30.9" x2="54" y2="-33.9"/>
			<line class="st1" x1="39.6" y1="-30.9" x2="39.6" y2="-33.9"/>
			<line class="st1" x1="25.2" y1="-30.9" x2="25.2" y2="-33.9"/>
			<line class="st1" x1="10.8" y1="-30.9" x2="10.8" y2="-33.9"/>
			<line class="st1" x1="46.8" y1="-38.1" x2="46.8" y2="-41.1"/>
			<line class="st1" x1="32.4" y1="-38.1" x2="32.4" y2="-41.1"/>
			<line class="st1" x1="18" y1="-38.1" x2="18" y2="-41.1"/>
			<line class="st1" x1="3.6" y1="-38.1" x2="3.6" y2="-41.1"/>
			<line class="st1" x1="54" y1="-45.3" x2="54" y2="-48.3"/>
			<line class="st1" x1="39.6" y1="-45.3" x2="39.6" y2="-48.3"/>
			<line class="st1" x1="25.2" y1="-45.3" x2="25.2" y2="-48.3"/>
			<line class="st1" x1="10.8" y1="-45.3" x2="10.8" y2="-48.3"/>
			<line class="st1" x1="46.8" y1="-52.5" x2="46.8" y2="-55.5"/>
			<line class="st1" x1="32.4" y1="-52.5" x2="32.4" y2="-55.5"/>
			<line class="st1" x1="18" y1="-52.5" x2="18" y2="-55.5"/>
			<line class="st1" x1="3.6" y1="-52.5" x2="3.6" y2="-55.5"/>
		</g>
	</g>
</pattern>
<polygon id="sky_1_" class="st2" points="1024,771 1024,1 0,1 0,771 960.8,771 980.8,771 "/>
<pattern  id="sky-pattern_3_" xlink:href="#sky-pattern_2_" patternTransform="matrix(1 0 0 -1 239.998 -18057.9961)">
</pattern>
<polygon id="sky-pattern_1_" class="st3" points="1024,771 1024,1 0,1 0,771 960.8,771 980.8,771 "/>
<circle id="sun_1_" class="st4" cx="840.1" cy="149.5" r="81.1"/>
</svg>
