<?xml version="1.0" encoding="utf-8"?>
<!-- Generator: Adobe Illustrator 19.2.0, SVG Export Plug-In . SVG Version: 6.00 Build 0)  -->
<svg version="1.1" id="Layer_1" xmlns="http://www.w3.org/2000/svg" xmlns:xlink="http://www.w3.org/1999/xlink" x="0px" y="0px"
	 viewBox="0 0 29.8 34.6" style="enable-background:new 0 0 29.8 34.6;" xml:space="preserve">
<style type="text/css">
	.st0{fill:#0288D1;}
	.st1{opacity:0.25;}
</style>
<g>
	<g>
		<path class="st0" d="M15.4,7.2c-2,0-3.6-1.6-3.6-3.6S13.4,0,15.4,0S19,1.6,19,3.6S17.4,7.2,15.4,7.2z M15.4,1.2
			c-1.3,0-2.4,1.1-2.4,2.4S14.1,6,15.4,6s2.4-1.1,2.4-2.4S16.7,1.2,15.4,1.2z"/>
	</g>
	<g>
		<g>
			<path class="st0" d="M17.7,31.6h-5.5C6,31.6,0.8,26.5,0.8,20.2v-5.5c0-6.2,5.1-11.4,11.4-11.4h5.5C23.9,3.3,29,8.4,29,14.7v5.5
				C29,26.4,23.9,31.6,17.7,31.6z"/>
		</g>
		<g>
			<g>
				<path class="st0" d="M14.4,17.4V5.1H12c-5.4,0-9.9,4.5-9.9,9.9v2.4H14.4z"/>
			</g>
			<g>
				<path class="st0" d="M15.4,17.4V5.1h2.4c5.4,0,9.9,4.5,9.9,9.9v2.4H15.4z"/>
			</g>
		</g>
		<g>
			<path class="st0" d="M0,19.7v2.9c0,6.6,5.4,12,12,12h5.8c6.6,0,12-5.4,12-12v-2.9C29.8,19.7,0,19.7,0,19.7z"/>
		</g>
		<g>
			<path class="st0" d="M0,22.6c0.3,0.2,0.6,0.4,0.9,0.6s0.6,0.4,0.9,0.6s0.6,0.3,0.9,0.5s0.6,0.3,0.9,0.4s0.6,0.3,1,0.4
				c0.3,0.1,0.6,0.2,1,0.3c0.2,0,0.3,0.1,0.5,0.1l0.5,0.1h0.5c0.2,0,0.3,0,0.5,0s0.3,0,0.5,0c0.1,0,0.2,0,0.2,0h0.2
				c0.2,0,0.3,0,0.5-0.1c0.2,0,0.3-0.1,0.5-0.1l0.5-0.1c0.2,0,0.3-0.1,0.4-0.2c0.1,0,0.1-0.1,0.2-0.1l0.2-0.1
				c0.1-0.1,0.3-0.1,0.4-0.2c0.3-0.2,0.6-0.3,0.8-0.5c0.1-0.1,0.3-0.2,0.4-0.3l0.4-0.3c0.1-0.1,0.2-0.2,0.4-0.3l0.4-0.3
				c0.2-0.2,0.5-0.5,0.7-0.7l0.7-0.7l0.6,0.7l0.1,0.1c0.1,0.1,0.1,0.1,0.2,0.2c0.1,0.1,0.2,0.2,0.3,0.3c0.2,0.2,0.5,0.4,0.8,0.6
				s0.5,0.3,0.8,0.5s0.6,0.3,0.8,0.4c0.1,0.1,0.3,0.1,0.4,0.2s0.3,0.1,0.4,0.2c0.1,0,0.3,0.1,0.5,0.1s0.3,0.1,0.5,0.1
				c0.3,0.1,0.6,0.1,0.9,0.2h0.5h0.5c0.2,0,0.3,0,0.5,0H23h0.2c0.2,0,0.3,0,0.5,0l0.5-0.1c0.2,0,0.3-0.1,0.5-0.1s0.3-0.1,0.5-0.1
				l0.5-0.1c0.2,0,0.3-0.1,0.5-0.2c0.3-0.1,0.6-0.2,0.9-0.3c0.2-0.1,0.3-0.1,0.5-0.2s0.3-0.1,0.5-0.2c0.3-0.1,0.6-0.3,0.9-0.5
				s0.6-0.3,0.9-0.5c-0.2,0.2-0.5,0.5-0.8,0.7s-0.5,0.4-0.8,0.7c-0.3,0.2-0.6,0.4-0.9,0.6s-0.6,0.4-0.9,0.5
				c-0.2,0.1-0.3,0.2-0.5,0.2l-0.5,0.2c-0.2,0.1-0.3,0.1-0.5,0.2s-0.3,0.1-0.5,0.2L24,26.1c-0.2,0-0.4,0.1-0.5,0.1l-0.3,0.1h-0.3
				c-0.2,0-0.4,0.1-0.5,0.1c-0.2,0-0.4,0-0.6,0h-0.6c-0.4,0-0.7-0.1-1.1-0.1c-0.2,0-0.4-0.1-0.5-0.1c-0.2,0-0.4-0.1-0.5-0.1
				c-0.2,0-0.4-0.1-0.5-0.2c-0.2-0.1-0.4-0.1-0.5-0.2c-0.3-0.1-0.7-0.3-1-0.5s-0.6-0.4-1-0.6c-0.3-0.2-0.6-0.4-0.9-0.7
				c-0.1-0.1-0.3-0.2-0.4-0.4c-0.1-0.1-0.1-0.1-0.2-0.2c-0.1-0.1-0.1-0.1-0.2-0.2h1.3c-0.3,0.3-0.5,0.6-0.8,0.8l-0.4,0.4
				c-0.1,0.1-0.3,0.3-0.4,0.4l-0.5,0.4c-0.1,0.1-0.3,0.2-0.5,0.3c-0.3,0.2-0.7,0.4-1,0.6c-0.2,0.1-0.4,0.2-0.5,0.2l-0.3,0.1
				c-0.1,0-0.2,0.1-0.3,0.1c-0.2,0.1-0.4,0.1-0.6,0.2l-0.6,0.1c-0.2,0-0.4,0.1-0.6,0.1C9,27,8.8,27,8.7,27H8.4c-0.1,0-0.2,0-0.3,0
				c-0.2,0-0.4,0-0.6,0s-0.4,0-0.6-0.1l-0.6-0.1l-0.6-0.1c-0.2-0.1-0.4-0.1-0.5-0.2c-0.7-0.3-1.4-0.6-2-1c-0.3-0.2-0.6-0.4-0.9-0.6
				s-0.6-0.4-0.8-0.7C1.2,24,1,23.7,0.7,23.4C0.5,23.2,0.2,22.9,0,22.6z"/>
		</g>
		<g class="st1">
			<g>
				<path class="st0" d="M29,19.7v-4.8c0-6.2-5.1-11.4-11.4-11.4h-2.8v16.2v12.1v2.8h2.9c6.6,0,12-5.4,12-12v-2.9
					C29.7,19.7,29,19.7,29,19.7z"/>
			</g>
		</g>
	</g>
</g>
</svg>
