<?xml version="1.0" encoding="utf-8"?>
<!-- Generator: Adobe Illustrator 19.2.0, SVG Export Plug-In . SVG Version: 6.00 Build 0)  -->
<svg version="1.1" id="Layer_1" xmlns="http://www.w3.org/2000/svg" xmlns:xlink="http://www.w3.org/1999/xlink" x="0px" y="0px"
	 viewBox="0 0 1024.2 253.2" style="enable-background:new 0 0 1024.2 253.2;" xml:space="preserve">
<style type="text/css">
	.st0{fill:none;}
	.st1{fill:#227A34;stroke:#FED025;stroke-width:0.3532;}
	.st2{fill:#D0DC73;stroke:#165F2C;stroke-width:0.3532;}
	.st3{fill:none;stroke:#009C4D;stroke-width:0.3532;}
	.st4{fill:#8AC15E;stroke:#007A3D;stroke-width:0.3532;}
	.st5{fill:#008342;stroke:#F1DD80;stroke-width:0.3532;}
	.st6{fill:#0086CB;stroke:#0086CB;stroke-width:0.3532;}
	.st7{fill:#81C784;}
	.st8{opacity:0.2;}
	.st9{fill:url(#SVGID_2_);}
	.st10{fill:#A5D6A7;}
	.st11{fill:#C8E6C9;}
</style>
<pattern  y="253.2" width="93.3" height="81.2" patternUnits="userSpaceOnUse" id="SVGID_1_" viewBox="10.9 -91.6 93.3 81.2" style="overflow:visible;">
	<g>
		<rect x="10.9" y="-91.6" class="st0" width="93.3" height="81.2"/>
		<g>
			<rect x="10.9" y="-91.6" class="st0" width="93.3" height="81.2"/>
			<g>
				<g>
					<path class="st1" d="M113.2-71.4h-9.1c0,0,3.6-0.2,7.3-3.2L113.2-71.4L113.2-71.4z"/>
					<path class="st2" d="M104.2-71.3h9l-1.8,3.7C106.7-70,104.2-71.3,104.2-71.3z"/>
				</g>
				<g>
					<path class="st1" d="M113.2-91.6h-9.1c0,0,3.6-0.2,7.3-3.2L113.2-91.6L113.2-91.6z"/>
					<path class="st2" d="M104.2-91.5h9l-1.8,3.7C106.7-90.2,104.2-91.5,104.2-91.5z"/>
				</g>
			</g>
			<g>
				<g>
					<polygon class="st3" points="48.5,-81 48.6,-81.1 52.4,-81.1 52.3,-81 					"/>
					<polygon class="st3" points="44.7,-81 44.8,-81.1 48.6,-81.1 48.5,-81 					"/>
					<polygon class="st3" points="52.3,-81 52.4,-81.1 56.2,-81.1 56.1,-81 					"/>
					<polygon class="st3" points="44.7,-81 40.9,-81 41,-81.1 44.8,-81.1 					"/>
					<polygon class="st3" points="63.7,-81 63.8,-81.1 67.6,-81.1 67.5,-81 					"/>
					<polygon class="st3" points="59.9,-81 60,-81.1 63.8,-81.1 63.7,-81 					"/>
					<polygon class="st3" points="56.1,-81 56.2,-81.1 60,-81.1 59.9,-81 					"/>
					<polygon class="st3" points="67.6,-81.1 71.4,-81.1 71.3,-81 67.5,-81 					"/>
					<path class="st4" d="M59.9-81h3.8v0.1l4.1,7.3c-0.9,0.5-1.9,1-3,1.5L59.9-81L59.9-81z"/>
					<path class="st4" d="M63.7-81h3.8v0.1l3,5.3c-0.8,0.7-1.7,1.3-2.7,1.9L63.7-81L63.7-81z"/>
					<path class="st4" d="M56.1-81h3.8v0.1l5,8.7c-1,0.4-2.1,0.7-3.2,1L56.1-81L56.1-81z"/>
					<path class="st4" d="M67.5-81h3.8v0.1l1.8,3c-0.4,0.3-0.9,0.7-1.3,1.2c-0.4,0.4-0.8,0.7-1.2,1.1L67.5-81L67.5-81z"/>
					<path class="st4" d="M71.3-81h9.1c0,0-3.6,0.2-7.3,3.2L71.3-81L71.3-81z"/>
					<path class="st4" d="M44.7-81l4.5,8c-0.1,0-0.2-0.1-0.3-0.1c-1.8-0.9-3.5-1.7-5-2.5l-3-5.3V-81H44.7L44.7-81z"/>
					<path class="st4" d="M48.5-81h3.8v0.1l5.6,9.8l-5.6-9.8V-81h3.8v0.1l5.5,9.7c-2.3,0.5-4.9,0.5-7.6-0.1L48.5-81L48.5-81z"/>
					<path class="st4" d="M43.9-75.6C37-79.1,33.2-81,33.2-81h7.7v0.1L43.9-75.6z"/>
					<path class="st4" d="M44.7-81h3.8v0.1l5.5,9.6c-1.5-0.3-3.1-0.9-4.7-1.7L44.7-81L44.7-81z"/>
					<path class="st5" d="M80.4-81.1h-9l1.8-3.7C77.9-82.4,80.4-81.1,80.4-81.1z"/>
					<path class="st5" d="M70.1-86.3c1.1,0.6,2.1,1.1,3.1,1.5l-1.8,3.7h-3.8L70.1-86.3z"/>
					<path class="st5" d="M33.2-81.1c0,0,4.4-0.2,8.7-4.3c0.6-0.6,1.3-1.1,2-1.7l-3,6H33.2z"/>
					<path class="st5" d="M44.8-81.1l4.4-8.9c1.3-0.5,2.8-0.9,4.3-1.1l-4.9,10H44.8z"/>
					<path class="st5" d="M60-81.1l4-8.2c0.2,0.1,0.5,0.2,0.7,0.3c0.8,0.4,1.6,0.8,2.4,1.2l-3.3,6.7H60z"/>
					<path class="st5" d="M41-81.1l3-6c1.5-1.1,3.2-2.1,5.2-2.9l-4.4,8.9H41z"/>
					<path class="st5" d="M67.6-81.1h-3.8l3.3-6.7c1.1,0.5,2.1,1,3.1,1.5L67.6-81.1z"/>
					<path class="st5" d="M56.2-81.1l4.6-9.4c1,0.3,2.1,0.7,3.2,1.2l-4,8.2H56.2z"/>
					<path class="st5" d="M48.6-81.1l4.9-10c1.2-0.2,2.5-0.2,3.8-0.1l-4.9,10.1H48.6z"/>
					<path class="st5" d="M52.4-81.1l4.9-10.1c1.1,0.1,2.3,0.3,3.5,0.6l-4.6,9.4L52.4-81.1L52.4-81.1z"/>
				</g>
				<g>
					<polygon class="st3" points="96.3,-81 96.3,-81.1 100.2,-81.1 100.1,-81 					"/>
					<polygon class="st3" points="92.5,-81 92.5,-81.1 96.3,-81.1 96.3,-81 					"/>
					<polygon class="st3" points="100.1,-81 100.2,-81.1 104,-81.1 103.9,-81 					"/>
					<polygon class="st3" points="92.5,-81 88.7,-81 88.7,-81.1 92.5,-81.1 					"/>
					<polygon class="st3" points="103.9,-81 104,-81.1 107.8,-81.1 107.7,-81 					"/>
					<path class="st4" d="M103.9-81h3.8v0.1l5,8.7c-1,0.4-2.1,0.7-3.2,1L103.9-81L103.9-81z"/>
					<path class="st4" d="M92.5-81l4.5,8c-0.1,0-0.2-0.1-0.3-0.1c-1.8-0.9-3.5-1.7-5-2.5l-3-5.3V-81H92.5L92.5-81z"/>
					<path class="st4" d="M96.3-81h3.8v0.1l5.6,9.8l-5.6-9.8V-81h3.8v0.1l5.5,9.7c-2.3,0.5-4.9,0.5-7.6-0.1L96.3-81L96.3-81z"/>
					<path class="st4" d="M91.7-75.6C84.8-79.1,81-81,81-81h7.7v0.1L91.7-75.6z"/>
					<path class="st4" d="M92.5-81h3.8v0.1l5.5,9.6c-1.5-0.3-3.1-0.9-4.8-1.7L92.5-81L92.5-81z"/>
					<path class="st5" d="M81-81.1c0,0,4.4-0.2,8.7-4.3c0.6-0.6,1.3-1.1,2-1.7l-3,6H81z"/>
					<path class="st5" d="M92.5-81.1l4.4-8.9c1.3-0.5,2.8-0.9,4.3-1.1l-4.9,10H92.5z"/>
					<path class="st5" d="M88.7-81.1l3-6c1.5-1.1,3.2-2.1,5.2-2.9l-4.4,8.9H88.7z"/>
					<path class="st5" d="M104-81.1l4.6-9.4c1.1,0.3,2.1,0.7,3.2,1.2l-4,8.2H104z"/>
					<path class="st5" d="M96.3-81.1l4.9-10c1.2-0.2,2.5-0.2,3.8-0.1l-4.9,10.1H96.3z"/>
					<path class="st5" d="M100.2-81.1l4.9-10.1c1.1,0.1,2.3,0.3,3.5,0.6l-4.6,9.4L100.2-81.1L100.2-81.1z"/>
				</g>
				<g>
					<polygon class="st3" points="42.8,-71.4 42.7,-71.3 38.9,-71.3 39,-71.4 					"/>
					<polygon class="st3" points="46.6,-71.4 46.5,-71.3 42.7,-71.3 42.8,-71.4 					"/>
					<polygon class="st3" points="39,-71.4 38.9,-71.3 35.1,-71.3 35.2,-71.4 					"/>
					<polygon class="st3" points="46.6,-71.4 50.4,-71.4 50.3,-71.3 46.5,-71.3 					"/>
					<polygon class="st3" points="27.6,-71.4 27.5,-71.3 23.7,-71.3 23.8,-71.4 					"/>
					<polygon class="st3" points="31.4,-71.4 31.3,-71.3 27.5,-71.3 27.6,-71.4 					"/>
					<polygon class="st3" points="35.2,-71.4 35.1,-71.3 31.3,-71.3 31.4,-71.4 					"/>
					<polygon class="st3" points="23.7,-71.3 19.9,-71.3 20,-71.4 23.8,-71.4 					"/>
					<path class="st1" d="M31.4-71.4h-3.8v-0.1l-4.1-7.3c0.9-0.5,1.9-1,3-1.5L31.4-71.4L31.4-71.4z"/>
					<path class="st1" d="M27.6-71.4h-3.8v-0.1l-3-5.3c0.8-0.7,1.7-1.3,2.7-1.9L27.6-71.4L27.6-71.4z"/>
					<path class="st1" d="M35.2-71.4h-3.8v-0.1l-5-8.7c1-0.4,2.1-0.7,3.2-1L35.2-71.4L35.2-71.4z"/>
					<path class="st1" d="M23.8-71.4H20v-0.1l-1.8-3.1c0.4-0.3,0.9-0.7,1.3-1.2c0.4-0.4,0.8-0.7,1.2-1.1L23.8-71.4L23.8-71.4z"/>
					<path class="st1" d="M20-71.4h-9.1c0,0,3.6-0.2,7.3-3.2L20-71.4L20-71.4z"/>
					<path class="st1" d="M46.6-71.5l-4.5-8c0.1,0,0.2,0.1,0.3,0.1c1.8,0.9,3.5,1.7,5,2.5l3,5.3v0.1H46.6L46.6-71.5z"/>
					<path class="st1" d="M42.8-71.4H39v-0.1l-5.6-9.8l5.6,9.8v0.1h-3.8v-0.1l-5.5-9.7c2.3-0.5,4.9-0.5,7.6,0.1L42.8-71.4L42.8-71.4
						z"/>
					<path class="st1" d="M47.4-76.8c6.9,3.5,10.7,5.4,10.7,5.4h-7.7v-0.1L47.4-76.8z"/>
					<path class="st1" d="M46.6-71.4h-3.8v-0.1l-5.5-9.6c1.5,0.3,3.1,0.9,4.7,1.7L46.6-71.4L46.6-71.4z"/>
					<path class="st2" d="M10.9-71.3h9l-1.8,3.7C13.4-70,10.9-71.3,10.9-71.3z"/>
					<path class="st2" d="M21.2-66.1c-1.1-0.6-2.1-1.1-3.1-1.5l1.8-3.7h3.8L21.2-66.1z"/>
					<path class="st2" d="M58.1-71.3c0,0-4.4,0.2-8.7,4.3c-0.6,0.6-1.3,1.1-2,1.7l3-6C50.4-71.3,58.1-71.3,58.1-71.3z"/>
					<path class="st2" d="M46.5-71.3l-4.4,8.9c-1.3,0.5-2.8,0.9-4.3,1.1l4.9-10C42.7-71.3,46.5-71.3,46.5-71.3z"/>
					<path class="st2" d="M31.3-71.3l-4,8.2c-0.2-0.1-0.5-0.2-0.7-0.3c-0.8-0.4-1.6-0.8-2.4-1.2l3.3-6.7
						C27.5-71.3,31.3-71.3,31.3-71.3z"/>
					<path class="st2" d="M50.3-71.3l-3,6c-1.5,1.1-3.2,2.1-5.2,2.9l4.4-8.9H50.3z"/>
					<path class="st2" d="M23.7-71.3h3.8l-3.3,6.7c-1.1-0.5-2.1-1-3.1-1.5L23.7-71.3z"/>
					<path class="st2" d="M35.1-71.3l-4.6,9.4c-1-0.3-2.1-0.7-3.2-1.2l4-8.2C31.3-71.3,35.1-71.3,35.1-71.3z"/>
					<path class="st2" d="M42.7-71.3l-4.9,10c-1.2,0.2-2.5,0.2-3.8,0.1l4.9-10.1C38.9-71.3,42.7-71.3,42.7-71.3z"/>
					<path class="st2" d="M38.9-71.3L34-61.2c-1.1-0.1-2.3-0.3-3.5-0.6l4.6-9.4L38.9-71.3L38.9-71.3z"/>
				</g>
				<g>
					<polygon class="st3" points="42.8,-91.6 42.7,-91.5 38.9,-91.5 39,-91.6 					"/>
					<polygon class="st3" points="46.6,-91.6 46.5,-91.5 42.7,-91.5 42.8,-91.6 					"/>
					<polygon class="st3" points="39,-91.6 38.9,-91.5 35.1,-91.5 35.2,-91.6 					"/>
					<polygon class="st3" points="46.6,-91.6 50.4,-91.6 50.3,-91.5 46.5,-91.5 					"/>
					<polygon class="st3" points="27.6,-91.6 27.5,-91.5 23.7,-91.5 23.8,-91.6 					"/>
					<polygon class="st3" points="31.4,-91.6 31.3,-91.5 27.5,-91.5 27.6,-91.6 					"/>
					<polygon class="st3" points="35.2,-91.6 35.1,-91.5 31.3,-91.5 31.4,-91.6 					"/>
					<polygon class="st3" points="23.7,-91.5 19.9,-91.5 20,-91.6 23.8,-91.6 					"/>
					<path class="st1" d="M31.4-91.6h-3.8v-0.1l-4.1-7.2c0.9-0.5,1.9-1,3-1.5L31.4-91.6L31.4-91.6z"/>
					<path class="st1" d="M27.6-91.6h-3.8v-0.1l-3-5.3c0.8-0.7,1.7-1.3,2.7-1.9L27.6-91.6L27.6-91.6z"/>
					<path class="st1" d="M35.2-91.6h-3.8v-0.1l-5-8.7c1-0.4,2.1-0.7,3.2-1L35.2-91.6L35.2-91.6z"/>
					<path class="st1" d="M23.8-91.6H20v-0.1l-1.8-3.1c0.5-0.3,0.9-0.7,1.4-1.1c0.4-0.4,0.8-0.7,1.2-1.1L23.8-91.6L23.8-91.6z"/>
					<path class="st1" d="M20-91.6h-9.1c0,0,3.6-0.2,7.3-3.2L20-91.6L20-91.6z"/>
					<path class="st1" d="M46.6-91.6l-4.5-8c0.1,0,0.2,0.1,0.3,0.1c1.8,0.9,3.5,1.7,5,2.5l3,5.3v0.1H46.6L46.6-91.6z"/>
					<path class="st1" d="M42.8-91.6H39v-0.1l-5.6-9.8l5.6,9.8v0.1h-3.8v-0.1l-5.5-9.7c2.3-0.5,4.9-0.5,7.6,0.1L42.8-91.6L42.8-91.6
						z"/>
					<path class="st1" d="M47.4-97c6.9,3.5,10.7,5.4,10.7,5.4h-7.7v-0.1L47.4-97z"/>
					<path class="st1" d="M46.6-91.6h-3.8v-0.1l-5.5-9.6c1.5,0.3,3.1,0.9,4.7,1.7L46.6-91.6L46.6-91.6z"/>
					<path class="st2" d="M10.9-91.5h9l-1.8,3.7C13.4-90.2,10.9-91.5,10.9-91.5z"/>
					<path class="st2" d="M21.2-86.3c-1.1-0.5-2.1-1.1-3.1-1.5l1.8-3.7h3.8L21.2-86.3z"/>
					<path class="st2" d="M58.1-91.5c0,0-4.4,0.2-8.7,4.3c-0.6,0.6-1.3,1.1-2,1.7l3-6H58.1z"/>
					<path class="st2" d="M46.5-91.5l-4.4,8.9c-1.3,0.5-2.8,0.9-4.3,1.1l4.9-10H46.5z"/>
					<path class="st2" d="M31.3-91.5l-4,8.2c-0.2-0.1-0.5-0.2-0.7-0.3c-0.8-0.4-1.6-0.8-2.4-1.2l3.3-6.7
						C27.5-91.5,31.3-91.5,31.3-91.5z"/>
					<path class="st2" d="M50.3-91.5l-3,6c-1.5,1.1-3.2,2.1-5.2,2.9l4.4-8.9H50.3z"/>
					<path class="st2" d="M23.7-91.5h3.8l-3.3,6.7c-1.1-0.5-2.1-1-3.1-1.5L23.7-91.5z"/>
					<path class="st2" d="M35.1-91.5l-4.6,9.4c-1-0.3-2.1-0.7-3.2-1.2l4-8.2C31.3-91.5,35.1-91.5,35.1-91.5z"/>
					<path class="st2" d="M42.7-91.5l-4.9,10c-1.2,0.2-2.5,0.2-3.8,0.1l4.9-10.1H42.7z"/>
					<path class="st2" d="M38.9-91.5L34-81.4c-1.1-0.1-2.3-0.3-3.5-0.6l4.6-9.4L38.9-91.5L38.9-91.5z"/>
				</g>
				<g>
					<polygon class="st6" points="89.2,-71.4 89.2,-71.3 85.4,-71.3 85.4,-71.4 					"/>
					<polygon class="st6" points="93,-71.4 93,-71.3 89.2,-71.3 89.2,-71.4 					"/>
					<polygon class="st6" points="85.4,-71.4 85.4,-71.3 81.6,-71.3 81.6,-71.4 					"/>
					<polygon class="st6" points="93,-71.4 96.8,-71.4 96.8,-71.3 93,-71.3 					"/>
					<polygon class="st6" points="74,-71.4 74,-71.3 70.2,-71.3 70.2,-71.4 					"/>
					<polygon class="st6" points="77.8,-71.4 77.8,-71.3 74,-71.3 74,-71.4 					"/>
					<polygon class="st6" points="81.6,-71.4 81.6,-71.3 77.8,-71.3 77.8,-71.4 					"/>
					<polygon class="st6" points="70.2,-71.3 66.4,-71.3 66.4,-71.4 70.2,-71.4 					"/>
					<path class="st1" d="M77.8-71.4H74v-0.1l-4.1-7.3c0.9-0.5,1.9-1,3-1.5L77.8-71.4L77.8-71.4z"/>
					<path class="st1" d="M74-71.4h-3.8v-0.1l-3-5.3c0.8-0.7,1.7-1.3,2.7-1.9L74-71.4L74-71.4z"/>
					<path class="st1" d="M81.6-71.4h-3.8v-0.1l-5-8.7c1-0.4,2.1-0.7,3.2-1L81.6-71.4L81.6-71.4z"/>
					<path class="st1" d="M70.2-71.4h-3.8v-0.1l-1.8-3.1c0.4-0.3,0.9-0.7,1.3-1.2c0.4-0.4,0.8-0.7,1.2-1.1L70.2-71.4L70.2-71.4z"/>
					<path class="st1" d="M66.4-71.4h-9.1c0,0,3.6-0.2,7.3-3.2L66.4-71.4L66.4-71.4z"/>
					<path class="st1" d="M93.1-71.5l-4.5-8c0.1,0,0.2,0.1,0.3,0.1c1.8,0.9,3.5,1.8,5,2.5l3,5.3v0.1H93.1L93.1-71.5z"/>
					<path class="st1" d="M89.2-71.4h-3.8v-0.1l-5.6-9.8l5.6,9.8v0.1h-3.8v-0.1l-5.5-9.7c2.3-0.5,4.9-0.5,7.6,0.1L89.2-71.4
						L89.2-71.4z"/>
					<path class="st1" d="M93.8-76.8c6.9,3.5,10.7,5.4,10.7,5.4h-7.7v-0.1L93.8-76.8z"/>
					<path class="st1" d="M93-71.4h-3.8v-0.1l-5.5-9.6c1.5,0.3,3.1,0.9,4.7,1.7L93-71.4L93-71.4z"/>
					<path class="st2" d="M57.3-71.3h9l-1.8,3.7C59.9-70,57.3-71.3,57.3-71.3z"/>
					<path class="st2" d="M67.6-66.1c-1.1-0.6-2.1-1.1-3.1-1.5l1.8-3.7h3.8L67.6-66.1z"/>
					<path class="st2" d="M104.5-71.3c0,0-4.4,0.2-8.7,4.3c-0.6,0.6-1.3,1.1-2,1.7l3-6C96.8-71.3,104.5-71.3,104.5-71.3z"/>
					<path class="st2" d="M93-71.3l-4.4,8.9c-1.3,0.5-2.8,0.9-4.3,1.1l4.9-10C89.2-71.3,93-71.3,93-71.3z"/>
					<path class="st2" d="M77.8-71.3l-4,8.2c-0.2-0.1-0.5-0.2-0.7-0.3c-0.8-0.4-1.6-0.8-2.4-1.2l3.3-6.7
						C74-71.3,77.8-71.3,77.8-71.3z"/>
					<path class="st2" d="M96.8-71.3l-3,6c-1.5,1.1-3.2,2.1-5.2,2.9l4.4-8.9H96.8z"/>
					<path class="st2" d="M70.2-71.3H74l-3.3,6.7c-1.1-0.5-2.1-1.1-3.1-1.5L70.2-71.3z"/>
					<path class="st2" d="M81.6-71.3L77-61.9c-1.1-0.3-2.1-0.7-3.2-1.2l4-8.2C77.8-71.3,81.6-71.3,81.6-71.3z"/>
					<path class="st2" d="M89.2-71.3l-4.9,10c-1.2,0.2-2.5,0.2-3.8,0.1l4.9-10.1C85.4-71.3,89.2-71.3,89.2-71.3z"/>
					<path class="st2" d="M85.4-71.3l-4.9,10.1c-1.1-0.1-2.3-0.3-3.5-0.6l4.6-9.4L85.4-71.3L85.4-71.3z"/>
				</g>
				<g>
					<polygon class="st6" points="89.2,-91.6 89.2,-91.5 85.4,-91.5 85.4,-91.6 					"/>
					<polygon class="st6" points="93,-91.6 93,-91.5 89.2,-91.5 89.2,-91.6 					"/>
					<polygon class="st6" points="85.4,-91.6 85.4,-91.5 81.6,-91.5 81.6,-91.6 					"/>
					<polygon class="st6" points="93,-91.6 96.8,-91.6 96.8,-91.5 93,-91.5 					"/>
					<polygon class="st6" points="74,-91.6 74,-91.5 70.2,-91.5 70.2,-91.6 					"/>
					<polygon class="st6" points="77.8,-91.6 77.8,-91.5 74,-91.5 74,-91.6 					"/>
					<polygon class="st6" points="81.6,-91.6 81.6,-91.5 77.8,-91.5 77.8,-91.6 					"/>
					<polygon class="st6" points="70.2,-91.5 66.4,-91.5 66.4,-91.6 70.2,-91.6 					"/>
					<path class="st1" d="M77.8-91.6H74v-0.1l-4.1-7.2c0.9-0.5,1.9-1,3-1.5L77.8-91.6L77.8-91.6z"/>
					<path class="st1" d="M74-91.6h-3.8v-0.1l-3-5.3c0.8-0.7,1.7-1.3,2.7-1.9L74-91.6L74-91.6z"/>
					<path class="st1" d="M81.6-91.6h-3.8v-0.1l-5-8.7c1-0.4,2.1-0.7,3.2-1L81.6-91.6L81.6-91.6z"/>
					<path class="st1" d="M70.2-91.6h-3.8v-0.1l-1.8-3.1c0.5-0.3,1-0.7,1.4-1.1s0.8-0.7,1.2-1.1L70.2-91.6L70.2-91.6z"/>
					<path class="st1" d="M66.4-91.6h-9.1c0,0,3.6-0.2,7.3-3.2L66.4-91.6L66.4-91.6z"/>
					<path class="st1" d="M93.1-91.6l-4.5-8c0.1,0,0.2,0.1,0.3,0.1c1.8,0.9,3.5,1.7,5,2.5l3,5.3v0.1H93.1L93.1-91.6z"/>
					<path class="st1" d="M89.2-91.6h-3.8v-0.1l-5.6-9.8l5.6,9.8v0.1h-3.8v-0.1l-5.5-9.7c2.3-0.5,4.9-0.5,7.6,0.1L89.2-91.6
						L89.2-91.6z"/>
					<path class="st1" d="M93.8-97c6.9,3.5,10.7,5.4,10.7,5.4h-7.7v-0.1L93.8-97z"/>
					<path class="st1" d="M93-91.6h-3.8v-0.1l-5.5-9.6c1.5,0.3,3.1,0.9,4.7,1.7L93-91.6L93-91.6z"/>
					<path class="st2" d="M57.3-91.5h9l-1.8,3.7C59.9-90.2,57.3-91.5,57.3-91.5z"/>
					<path class="st2" d="M67.6-86.3c-1.1-0.6-2.1-1.1-3.1-1.5l1.8-3.7h3.8L67.6-86.3z"/>
					<path class="st2" d="M104.5-91.5c0,0-4.4,0.2-8.7,4.3c-0.6,0.6-1.3,1.1-2,1.7l3-6H104.5z"/>
					<path class="st2" d="M93-91.5l-4.4,8.9c-1.3,0.5-2.8,0.9-4.3,1.1l4.9-10H93z"/>
					<path class="st2" d="M77.8-91.5l-4,8.2c-0.2-0.1-0.5-0.2-0.7-0.3c-0.8-0.4-1.6-0.8-2.4-1.2l3.3-6.7
						C74-91.5,77.8-91.5,77.8-91.5z"/>
					<path class="st2" d="M96.8-91.5l-3,6c-1.5,1.1-3.2,2.1-5.2,2.9l4.4-8.9H96.8z"/>
					<path class="st2" d="M70.2-91.5H74l-3.3,6.7c-1.1-0.5-2.1-1.1-3.1-1.5L70.2-91.5z"/>
					<path class="st2" d="M81.6-91.5L77-82.1c-1.1-0.3-2.1-0.7-3.2-1.2l4-8.2C77.8-91.5,81.6-91.5,81.6-91.5z"/>
					<path class="st2" d="M89.2-91.5l-4.9,10c-1.2,0.2-2.5,0.2-3.8,0.1l4.9-10.1H89.2z"/>
					<path class="st2" d="M85.4-91.5l-4.9,10.1c-1.1-0.1-2.3-0.3-3.5-0.6l4.6-9.4L85.4-91.5L85.4-91.5z"/>
				</g>
			</g>
			<g>
				<g>
					<polygon class="st3" points="6.8,-81 6.9,-81.1 10.7,-81.1 10.6,-81 					"/>
					<polygon class="st3" points="18.2,-81 18.3,-81.1 22.1,-81.1 22,-81 					"/>
					<polygon class="st3" points="14.4,-81 14.5,-81.1 18.3,-81.1 18.2,-81 					"/>
					<polygon class="st3" points="10.6,-81 10.7,-81.1 14.5,-81.1 14.4,-81 					"/>
					<polygon class="st3" points="22.1,-81.1 25.9,-81.1 25.8,-81 22,-81 					"/>
					<path class="st4" d="M14.4-81h3.8v0.1l4.1,7.3c-0.9,0.5-1.9,1-3,1.5L14.4-81L14.4-81z"/>
					<path class="st4" d="M18.2-81H22v0.1l3,5.3c-0.8,0.7-1.7,1.3-2.7,1.9L18.2-81L18.2-81z"/>
					<path class="st4" d="M10.6-81h3.8v0.1l5,8.7c-1,0.4-2.1,0.7-3.2,1L10.6-81L10.6-81z"/>
					<path class="st4" d="M22-81h3.8v0.1l1.8,3.1c-0.4,0.3-0.9,0.7-1.3,1.2c-0.4,0.4-0.8,0.7-1.2,1.1L22-81L22-81z"/>
					<path class="st4" d="M25.8-81h9.1c0,0-3.6,0.2-7.3,3.2L25.8-81L25.8-81z"/>
					<path class="st4" d="M3-81h3.8v0.1l5.6,9.8l-5.6-9.8V-81h3.8v0.1l5.5,9.7c-2.3,0.5-4.9,0.5-7.6-0.1L3-81L3-81z"/>
					<path class="st5" d="M34.9-81.1h-9l1.8-3.7C32.4-82.4,34.9-81.1,34.9-81.1z"/>
					<path class="st5" d="M24.6-86.3c1.1,0.6,2.1,1.1,3.1,1.5l-1.8,3.7h-3.8L24.6-86.3z"/>
					<path class="st5" d="M14.5-81.1l4-8.2c0.2,0.1,0.5,0.2,0.7,0.3c0.8,0.4,1.6,0.8,2.4,1.2l-3.3,6.7H14.5z"/>
					<path class="st5" d="M22.1-81.1h-3.8l3.3-6.7c1.1,0.5,2.1,1,3.1,1.5L22.1-81.1z"/>
					<path class="st5" d="M10.7-81.1l4.6-9.4c1.1,0.3,2.1,0.7,3.2,1.2l-4,8.2H10.7z"/>
					<path class="st5" d="M3.1-81.1l4.9-10c1.2-0.2,2.5-0.2,3.8-0.1L6.9-81.1H3.1z"/>
					<path class="st5" d="M6.9-81.1l4.9-10.1c1.1,0.1,2.3,0.3,3.5,0.6l-4.6,9.4L6.9-81.1L6.9-81.1z"/>
				</g>
				<g>
					<path class="st1" d="M0.5-76.8c6.9,3.5,10.7,5.4,10.7,5.4H3.6v-0.1L0.5-76.8z"/>
					<path class="st2" d="M11.2-71.3c0,0-4.4,0.2-8.7,4.3c-0.6,0.6-1.3,1.1-2,1.7l3-6C3.5-71.3,11.2-71.3,11.2-71.3z"/>
				</g>
				<g>
					<path class="st1" d="M0.5-97c6.9,3.5,10.7,5.4,10.7,5.4H3.6v-0.1L0.5-97z"/>
					<path class="st2" d="M11.2-91.5c0,0-4.4,0.2-8.7,4.3c-0.6,0.6-1.3,1.1-2,1.7l3-6H11.2z"/>
				</g>
			</g>
			<g>
				<g>
					<path class="st1" d="M113.2-30.8h-9.1c0,0,3.6-0.2,7.3-3.2L113.2-30.8L113.2-30.8z"/>
					<path class="st2" d="M104.2-30.7h9l-1.8,3.7C106.7-29.4,104.2-30.7,104.2-30.7z"/>
				</g>
				<g>
					<path class="st1" d="M113.2-71.4h-9.1c0,0,3.6-0.2,7.3-3.2L113.2-71.4L113.2-71.4z"/>
					<path class="st2" d="M104.2-71.3h9l-1.8,3.7C106.7-70,104.2-71.3,104.2-71.3z"/>
				</g>
				<g>
					<path class="st1" d="M113.2-51h-9.1c0,0,3.6-0.2,7.3-3.2L113.2-51L113.2-51z"/>
					<path class="st2" d="M104.2-50.9h9l-1.8,3.7C106.7-49.6,104.2-50.9,104.2-50.9z"/>
				</g>
			</g>
			<g>
				<g>
					<polygon class="st3" points="48.5,-40.4 48.6,-40.5 52.4,-40.5 52.3,-40.4 					"/>
					<polygon class="st3" points="44.7,-40.4 44.8,-40.5 48.6,-40.5 48.5,-40.4 					"/>
					<polygon class="st3" points="52.3,-40.4 52.4,-40.5 56.2,-40.5 56.1,-40.4 					"/>
					<polygon class="st3" points="44.7,-40.4 40.9,-40.4 41,-40.5 44.8,-40.5 					"/>
					<polygon class="st3" points="63.7,-40.4 63.8,-40.5 67.6,-40.5 67.5,-40.4 					"/>
					<polygon class="st3" points="59.9,-40.4 60,-40.5 63.8,-40.5 63.7,-40.4 					"/>
					<polygon class="st3" points="56.1,-40.4 56.2,-40.5 60,-40.5 59.9,-40.4 					"/>
					<polygon class="st3" points="67.6,-40.5 71.4,-40.5 71.3,-40.4 67.5,-40.4 					"/>
					<path class="st4" d="M59.9-40.4h3.8v0.1l4.1,7.3c-0.9,0.5-1.9,1-3,1.5L59.9-40.4L59.9-40.4z"/>
					<path class="st4" d="M63.7-40.4h3.8v0.1l3,5.3c-0.8,0.7-1.7,1.3-2.7,1.9L63.7-40.4L63.7-40.4z"/>
					<path class="st4" d="M56.1-40.4h3.8v0.1l5,8.7c-1,0.4-2.1,0.7-3.2,1L56.1-40.4L56.1-40.4z"/>
					<path class="st4" d="M67.5-40.4h3.8v0.1l1.8,3.1c-0.4,0.3-0.9,0.7-1.3,1.2c-0.4,0.4-0.8,0.7-1.2,1.1L67.5-40.4L67.5-40.4z"/>
					<path class="st4" d="M71.3-40.4h9.1c0,0-3.6,0.2-7.3,3.2L71.3-40.4L71.3-40.4z"/>
					<path class="st4" d="M44.7-40.4l4.5,8c-0.1,0-0.2-0.1-0.3-0.1c-1.8-0.9-3.5-1.7-5-2.5l-3-5.3v-0.1L44.7-40.4L44.7-40.4z"/>
					<path class="st4" d="M48.5-40.4h3.8v0.1l5.6,9.8l-5.6-9.8v-0.1h3.8v0.1l5.5,9.7c-2.3,0.5-4.9,0.5-7.6-0.1L48.5-40.4L48.5-40.4z
						"/>
					<path class="st4" d="M43.9-35c-6.9-3.5-10.7-5.4-10.7-5.4h7.7v0.1L43.9-35z"/>
					<path class="st4" d="M44.7-40.4h3.8v0.1l5.5,9.6c-1.5-0.3-3.1-0.9-4.7-1.7L44.7-40.4L44.7-40.4z"/>
					<path class="st5" d="M80.4-40.5h-9l1.8-3.7C77.9-41.8,80.4-40.5,80.4-40.5z"/>
					<path class="st5" d="M70.1-45.7c1.1,0.6,2.1,1.1,3.1,1.5l-1.8,3.7h-3.8L70.1-45.7z"/>
					<path class="st5" d="M33.2-40.5c0,0,4.4-0.2,8.7-4.3c0.6-0.6,1.3-1.1,2-1.7l-3,6H33.2z"/>
					<path class="st5" d="M44.8-40.5l4.4-8.9c1.3-0.5,2.8-0.9,4.3-1.1l-4.9,10H44.8z"/>
					<path class="st5" d="M60-40.5l4-8.2c0.2,0.1,0.5,0.2,0.7,0.3c0.8,0.4,1.6,0.8,2.4,1.2l-3.3,6.7H60z"/>
					<path class="st5" d="M41-40.5l3-6c1.5-1.1,3.2-2.1,5.2-2.9l-4.4,8.9H41z"/>
					<path class="st5" d="M67.6-40.5h-3.8l3.3-6.7c1.1,0.5,2.1,1,3.1,1.5L67.6-40.5z"/>
					<path class="st5" d="M56.2-40.5l4.6-9.4c1,0.3,2.1,0.7,3.2,1.2l-4,8.2H56.2z"/>
					<path class="st5" d="M48.6-40.5l4.9-10c1.2-0.2,2.5-0.2,3.8-0.1l-4.9,10.1H48.6z"/>
					<path class="st5" d="M52.4-40.5l4.9-10.1c1.1,0.1,2.3,0.3,3.5,0.6l-4.6,9.4L52.4-40.5L52.4-40.5z"/>
				</g>
				<g>
					<polygon class="st3" points="48.5,-81 48.6,-81.1 52.4,-81.1 52.3,-81 					"/>
					<polygon class="st3" points="44.7,-81 44.8,-81.1 48.6,-81.1 48.5,-81 					"/>
					<polygon class="st3" points="52.3,-81 52.4,-81.1 56.2,-81.1 56.1,-81 					"/>
					<polygon class="st3" points="44.7,-81 40.9,-81 41,-81.1 44.8,-81.1 					"/>
					<polygon class="st3" points="63.7,-81 63.8,-81.1 67.6,-81.1 67.5,-81 					"/>
					<polygon class="st3" points="59.9,-81 60,-81.1 63.8,-81.1 63.7,-81 					"/>
					<polygon class="st3" points="56.1,-81 56.2,-81.1 60,-81.1 59.9,-81 					"/>
					<polygon class="st3" points="67.6,-81.1 71.4,-81.1 71.3,-81 67.5,-81 					"/>
					<path class="st4" d="M59.9-81h3.8v0.1l4.1,7.3c-0.9,0.5-1.9,1-3,1.5L59.9-81L59.9-81z"/>
					<path class="st4" d="M63.7-81h3.8v0.1l3,5.3c-0.8,0.7-1.7,1.3-2.7,1.9L63.7-81L63.7-81z"/>
					<path class="st4" d="M56.1-81h3.8v0.1l5,8.7c-1,0.4-2.1,0.7-3.2,1L56.1-81L56.1-81z"/>
					<path class="st4" d="M67.5-81h3.8v0.1l1.8,3c-0.4,0.3-0.9,0.7-1.3,1.2c-0.4,0.4-0.8,0.7-1.2,1.1L67.5-81L67.5-81z"/>
					<path class="st4" d="M71.3-81h9.1c0,0-3.6,0.2-7.3,3.2L71.3-81L71.3-81z"/>
					<path class="st4" d="M44.7-81l4.5,8c-0.1,0-0.2-0.1-0.3-0.1c-1.8-0.9-3.5-1.8-5-2.5l-3-5.3V-81H44.7L44.7-81z"/>
					<path class="st4" d="M48.5-81h3.8v0.1l5.6,9.8l-5.6-9.8V-81h3.8v0.1l5.5,9.7c-2.3,0.5-4.9,0.5-7.6-0.1L48.5-81L48.5-81z"/>
					<path class="st4" d="M43.9-75.6C37-79.1,33.2-81,33.2-81h7.7v0.1L43.9-75.6z"/>
					<path class="st4" d="M44.7-81h3.8v0.1l5.5,9.6c-1.5-0.3-3.1-0.9-4.7-1.7L44.7-81L44.7-81z"/>
					<path class="st5" d="M80.4-81.1h-9l1.8-3.7C77.9-82.4,80.4-81.1,80.4-81.1z"/>
					<path class="st5" d="M70.1-86.3c1.1,0.6,2.1,1.1,3.1,1.5l-1.8,3.7h-3.8L70.1-86.3z"/>
					<path class="st5" d="M33.2-81.1c0,0,4.4-0.2,8.7-4.3c0.6-0.6,1.3-1.1,2-1.7l-3,6H33.2z"/>
					<path class="st5" d="M44.8-81.1l4.4-8.9c1.3-0.5,2.8-0.9,4.3-1.1l-4.9,10H44.8z"/>
					<path class="st5" d="M60-81.1l4-8.2c0.2,0.1,0.5,0.2,0.7,0.3c0.8,0.4,1.6,0.8,2.4,1.2l-3.3,6.7H60z"/>
					<path class="st5" d="M41-81.1l3-6c1.5-1.1,3.2-2.1,5.2-2.9l-4.4,8.9H41z"/>
					<path class="st5" d="M67.6-81.1h-3.8l3.3-6.7c1.1,0.5,2.1,1,3.1,1.5L67.6-81.1z"/>
					<path class="st5" d="M56.2-81.1l4.6-9.4c1,0.3,2.1,0.7,3.2,1.2l-4,8.2H56.2z"/>
					<path class="st5" d="M48.6-81.1l4.9-10c1.2-0.2,2.5-0.2,3.8-0.1l-4.9,10.1H48.6z"/>
					<path class="st5" d="M52.4-81.1l4.9-10.1c1.1,0.1,2.3,0.3,3.5,0.6l-4.6,9.4L52.4-81.1L52.4-81.1z"/>
				</g>
				<g>
					<polygon class="st3" points="48.5,-61.5 48.6,-61.6 52.4,-61.6 52.3,-61.5 					"/>
					<polygon class="st3" points="44.7,-61.5 44.8,-61.6 48.6,-61.6 48.5,-61.5 					"/>
					<polygon class="st3" points="52.3,-61.5 52.4,-61.6 56.2,-61.6 56.1,-61.5 					"/>
					<polygon class="st3" points="44.7,-61.5 40.9,-61.5 41,-61.6 44.8,-61.6 					"/>
					<polygon class="st3" points="63.7,-61.5 63.8,-61.6 67.6,-61.6 67.5,-61.5 					"/>
					<polygon class="st3" points="59.9,-61.5 60,-61.6 63.8,-61.6 63.7,-61.5 					"/>
					<polygon class="st3" points="56.1,-61.5 56.2,-61.6 60,-61.6 59.9,-61.5 					"/>
					<polygon class="st3" points="67.6,-61.6 71.4,-61.6 71.3,-61.5 67.5,-61.5 					"/>
					<path class="st4" d="M59.9-61.5h3.8v0.1l4.1,7.3c-0.9,0.5-1.9,1-3,1.5L59.9-61.5L59.9-61.5z"/>
					<path class="st4" d="M63.7-61.5h3.8v0.1l3,5.3c-0.8,0.7-1.7,1.3-2.7,1.9L63.7-61.5L63.7-61.5z"/>
					<path class="st4" d="M56.1-61.5h3.8v0.1l5,8.7c-1,0.4-2.1,0.7-3.2,1L56.1-61.5L56.1-61.5z"/>
					<path class="st4" d="M67.5-61.5h3.8v0.1l1.8,3.1c-0.4,0.3-0.9,0.7-1.3,1.2c-0.4,0.4-0.8,0.7-1.2,1.1L67.5-61.5L67.5-61.5z"/>
					<path class="st4" d="M71.3-61.5h9.1c0,0-3.6,0.2-7.3,3.2L71.3-61.5L71.3-61.5z"/>
					<path class="st4" d="M44.7-61.4l4.5,8c-0.1,0-0.2-0.1-0.3-0.1c-1.8-0.9-3.5-1.7-5-2.5l-3-5.3v-0.1L44.7-61.4L44.7-61.4z"/>
					<path class="st4" d="M48.5-61.5h3.8v0.1l5.6,9.8l-5.6-9.8v-0.1h3.8v0.1l5.5,9.7c-2.3,0.5-4.9,0.5-7.6-0.1L48.5-61.5L48.5-61.5z
						"/>
					<path class="st4" d="M43.9-56.1c-6.9-3.5-10.7-5.4-10.7-5.4h7.7v0.1L43.9-56.1z"/>
					<path class="st4" d="M44.7-61.5h3.8v0.1l5.5,9.6c-1.5-0.3-3.1-0.9-4.7-1.7L44.7-61.5L44.7-61.5z"/>
					<path class="st5" d="M80.4-61.6h-9l1.8-3.7C77.9-62.9,80.4-61.6,80.4-61.6z"/>
					<path class="st5" d="M70.1-66.8c1.1,0.6,2.1,1.1,3.1,1.5l-1.8,3.7h-3.8L70.1-66.8z"/>
					<path class="st5" d="M33.2-61.6c0,0,4.4-0.2,8.7-4.3c0.6-0.6,1.3-1.1,2-1.7l-3,6H33.2z"/>
					<path class="st5" d="M44.8-61.6l4.4-8.9c1.3-0.5,2.8-0.9,4.3-1.1l-4.9,10H44.8z"/>
					<path class="st5" d="M60-61.6l4-8.2c0.2,0.1,0.5,0.2,0.7,0.3c0.8,0.4,1.6,0.8,2.4,1.2l-3.3,6.7H60z"/>
					<path class="st5" d="M41-61.6l3-6c1.5-1.1,3.2-2.1,5.2-2.9l-4.4,8.9H41z"/>
					<path class="st5" d="M67.6-61.6h-3.8l3.3-6.7c1.1,0.5,2.1,1,3.1,1.5L67.6-61.6z"/>
					<path class="st5" d="M56.2-61.6l4.6-9.4c1,0.3,2.1,0.7,3.2,1.2l-4,8.2H56.2z"/>
					<path class="st5" d="M48.6-61.6l4.9-10c1.2-0.2,2.5-0.2,3.8-0.1l-4.9,10.1H48.6z"/>
					<path class="st5" d="M52.4-61.6l4.9-10.1c1.1,0.1,2.3,0.3,3.5,0.6l-4.6,9.4h-3.8V-61.6z"/>
				</g>
				<g>
					<polygon class="st3" points="96.3,-40.4 96.3,-40.5 100.2,-40.5 100.1,-40.4 					"/>
					<polygon class="st3" points="92.5,-40.4 92.5,-40.5 96.3,-40.5 96.3,-40.4 					"/>
					<polygon class="st3" points="100.1,-40.4 100.2,-40.5 104,-40.5 103.9,-40.4 					"/>
					<polygon class="st3" points="92.5,-40.4 88.7,-40.4 88.7,-40.5 92.5,-40.5 					"/>
					<polygon class="st3" points="111.5,-40.4 111.6,-40.5 115.4,-40.5 115.3,-40.4 					"/>
					<polygon class="st3" points="107.7,-40.4 107.8,-40.5 111.6,-40.5 111.5,-40.4 					"/>
					<polygon class="st3" points="103.9,-40.4 104,-40.5 107.8,-40.5 107.7,-40.4 					"/>
					<polygon class="st3" points="115.4,-40.5 119.2,-40.5 119.1,-40.4 115.3,-40.4 					"/>
					<path class="st4" d="M107.7-40.4h3.8v0.1l4.1,7.3c-0.9,0.5-1.9,1-3,1.5L107.7-40.4L107.7-40.4z"/>
					<path class="st4" d="M111.5-40.4h3.8v0.1l3,5.3c-0.8,0.7-1.7,1.3-2.7,1.9L111.5-40.4L111.5-40.4z"/>
					<path class="st4" d="M103.9-40.4h3.8v0.1l5,8.7c-1,0.4-2.1,0.7-3.2,1L103.9-40.4L103.9-40.4z"/>
					<path class="st4" d="M115.3-40.4h3.8v0.1l1.8,3.1c-0.4,0.3-0.9,0.7-1.3,1.2c-0.4,0.4-0.8,0.7-1.2,1.1L115.3-40.4L115.3-40.4z"
						/>
					<path class="st4" d="M119.1-40.4h9.1c0,0-3.6,0.2-7.3,3.2L119.1-40.4L119.1-40.4z"/>
					<path class="st4" d="M92.5-40.4l4.5,8c-0.1,0-0.2-0.1-0.3-0.1c-1.8-0.9-3.5-1.7-5-2.5l-3-5.3v-0.1L92.5-40.4L92.5-40.4z"/>
					<path class="st4" d="M96.3-40.4h3.8v0.1l5.6,9.8l-5.6-9.8v-0.1h3.8v0.1l5.5,9.7c-2.3,0.5-4.9,0.5-7.6-0.1L96.3-40.4L96.3-40.4z
						"/>
					<path class="st4" d="M91.7-35C84.8-38.5,81-40.4,81-40.4h7.7v0.1L91.7-35z"/>
					<path class="st4" d="M92.5-40.4h3.8v0.1l5.5,9.6c-1.5-0.3-3.1-0.9-4.8-1.7L92.5-40.4L92.5-40.4z"/>
					<path class="st5" d="M128.2-40.5h-9l1.8-3.7C125.7-41.8,128.2-40.5,128.2-40.5z"/>
					<path class="st5" d="M117.9-45.7c1.1,0.6,2.1,1.1,3.1,1.5l-1.8,3.7h-3.8L117.9-45.7z"/>
					<path class="st5" d="M81-40.5c0,0,4.4-0.2,8.7-4.3c0.6-0.6,1.3-1.1,2-1.7l-3,6H81z"/>
					<path class="st5" d="M92.5-40.5l4.4-8.9c1.3-0.5,2.8-0.9,4.3-1.1l-4.9,10H92.5z"/>
					<path class="st5" d="M107.8-40.5l4-8.2c0.2,0.1,0.5,0.2,0.7,0.3c0.8,0.4,1.6,0.8,2.4,1.2l-3.3,6.7H107.8z"/>
					<path class="st5" d="M88.7-40.5l3-6c1.5-1.1,3.2-2.1,5.2-2.9l-4.4,8.9H88.7z"/>
					<path class="st5" d="M115.4-40.5h-3.8l3.3-6.7c1.1,0.5,2.1,1,3.1,1.5L115.4-40.5z"/>
					<path class="st5" d="M104-40.5l4.6-9.4c1.1,0.3,2.1,0.7,3.2,1.2l-4,8.2H104z"/>
					<path class="st5" d="M96.3-40.5l4.9-10c1.2-0.2,2.5-0.2,3.8-0.1l-4.9,10.1H96.3z"/>
					<path class="st5" d="M100.2-40.5l4.9-10.1c1.1,0.1,2.3,0.3,3.5,0.6l-4.6,9.4L100.2-40.5L100.2-40.5z"/>
				</g>
				<g>
					<polygon class="st3" points="96.3,-81 96.3,-81.1 100.2,-81.1 100.1,-81 					"/>
					<polygon class="st3" points="92.5,-81 92.5,-81.1 96.3,-81.1 96.3,-81 					"/>
					<polygon class="st3" points="100.1,-81 100.2,-81.1 104,-81.1 103.9,-81 					"/>
					<polygon class="st3" points="92.5,-81 88.7,-81 88.7,-81.1 92.5,-81.1 					"/>
					<polygon class="st3" points="111.5,-81 111.6,-81.1 115.4,-81.1 115.3,-81 					"/>
					<polygon class="st3" points="107.7,-81 107.8,-81.1 111.6,-81.1 111.5,-81 					"/>
					<polygon class="st3" points="103.9,-81 104,-81.1 107.8,-81.1 107.7,-81 					"/>
					<polygon class="st3" points="115.4,-81.1 119.2,-81.1 119.1,-81 115.3,-81 					"/>
					<path class="st4" d="M107.7-81h3.8v0.1l4.1,7.3c-0.9,0.5-1.9,1-3,1.5L107.7-81L107.7-81z"/>
					<path class="st4" d="M111.5-81h3.8v0.1l3,5.3c-0.8,0.7-1.7,1.3-2.7,1.9L111.5-81L111.5-81z"/>
					<path class="st4" d="M103.9-81h3.8v0.1l5,8.7c-1,0.4-2.1,0.7-3.2,1L103.9-81L103.9-81z"/>
					<path class="st4" d="M115.3-81h3.8v0.1l1.8,3.1c-0.4,0.3-0.9,0.7-1.3,1.2c-0.4,0.4-0.8,0.7-1.2,1.1L115.3-81L115.3-81z"/>
					<path class="st4" d="M119.1-81h9.1c0,0-3.6,0.2-7.3,3.2L119.1-81L119.1-81z"/>
					<path class="st4" d="M92.5-81l4.5,8c-0.1,0-0.2-0.1-0.3-0.1c-1.8-0.9-3.5-1.8-5-2.5l-3-5.3V-81H92.5L92.5-81z"/>
					<path class="st4" d="M96.3-81h3.8v0.1l5.6,9.8l-5.6-9.8V-81h3.8v0.1l5.5,9.7c-2.3,0.5-4.9,0.5-7.6-0.1L96.3-81L96.3-81z"/>
					<path class="st4" d="M91.7-75.6C84.8-79.1,81-81,81-81h7.7v0.1L91.7-75.6z"/>
					<path class="st4" d="M92.5-81h3.8v0.1l5.5,9.6c-1.5-0.3-3.1-0.9-4.8-1.7L92.5-81L92.5-81z"/>
					<path class="st5" d="M128.2-81.1h-9l1.8-3.7C125.7-82.4,128.2-81.1,128.2-81.1z"/>
					<path class="st5" d="M117.9-86.3c1.1,0.6,2.1,1.1,3.1,1.5l-1.8,3.7h-3.8L117.9-86.3z"/>
					<path class="st5" d="M81-81.1c0,0,4.4-0.2,8.7-4.3c0.6-0.6,1.3-1.1,2-1.7l-3,6H81z"/>
					<path class="st5" d="M92.5-81.1l4.4-8.9c1.3-0.5,2.8-0.9,4.3-1.1l-4.9,10H92.5z"/>
					<path class="st5" d="M107.8-81.1l4-8.2c0.2,0.1,0.5,0.2,0.7,0.3c0.8,0.4,1.6,0.8,2.4,1.2l-3.3,6.7H107.8z"/>
					<path class="st5" d="M88.7-81.1l3-6c1.5-1.1,3.2-2.1,5.2-2.9l-4.4,8.9H88.7z"/>
					<path class="st5" d="M115.4-81.1h-3.8l3.3-6.7c1.1,0.5,2.1,1,3.1,1.5L115.4-81.1z"/>
					<path class="st5" d="M104-81.1l4.6-9.4c1.1,0.3,2.1,0.7,3.2,1.2l-4,8.2H104z"/>
					<path class="st5" d="M96.3-81.1l4.9-10c1.2-0.2,2.5-0.2,3.8-0.1l-4.9,10.1H96.3z"/>
					<path class="st5" d="M100.2-81.1l4.9-10.1c1.1,0.1,2.3,0.3,3.5,0.6l-4.6,9.4L100.2-81.1L100.2-81.1z"/>
				</g>
				<g>
					<polygon class="st3" points="96.3,-61.5 96.3,-61.6 100.2,-61.6 100.1,-61.5 					"/>
					<polygon class="st3" points="92.5,-61.5 92.5,-61.6 96.3,-61.6 96.3,-61.5 					"/>
					<polygon class="st3" points="100.1,-61.5 100.2,-61.6 104,-61.6 103.9,-61.5 					"/>
					<polygon class="st3" points="92.5,-61.5 88.7,-61.5 88.7,-61.6 92.5,-61.6 					"/>
					<polygon class="st3" points="111.5,-61.5 111.6,-61.6 115.4,-61.6 115.3,-61.5 					"/>
					<polygon class="st3" points="107.7,-61.5 107.8,-61.6 111.6,-61.6 111.5,-61.5 					"/>
					<polygon class="st3" points="103.9,-61.5 104,-61.6 107.8,-61.6 107.7,-61.5 					"/>
					<polygon class="st3" points="115.4,-61.6 119.2,-61.6 119.1,-61.5 115.3,-61.5 					"/>
					<path class="st4" d="M107.7-61.5h3.8v0.1l4.1,7.3c-0.9,0.5-1.9,1-3,1.5L107.7-61.5L107.7-61.5z"/>
					<path class="st4" d="M111.5-61.5h3.8v0.1l3,5.3c-0.8,0.7-1.7,1.3-2.7,1.9L111.5-61.5L111.5-61.5z"/>
					<path class="st4" d="M103.9-61.5h3.8v0.1l5,8.7c-1,0.4-2.1,0.7-3.2,1L103.9-61.5L103.9-61.5z"/>
					<path class="st4" d="M115.3-61.5h3.8v0.1l1.8,3.1c-0.4,0.3-0.9,0.7-1.3,1.2c-0.4,0.4-0.8,0.7-1.2,1.1L115.3-61.5L115.3-61.5z"
						/>
					<path class="st4" d="M119.1-61.5h9.1c0,0-3.6,0.2-7.3,3.2L119.1-61.5L119.1-61.5z"/>
					<path class="st4" d="M92.5-61.4l4.5,8c-0.1,0-0.2-0.1-0.3-0.1c-1.8-0.9-3.5-1.7-5-2.5l-3-5.3v-0.1L92.5-61.4L92.5-61.4z"/>
					<path class="st4" d="M96.3-61.5h3.8v0.1l5.6,9.8l-5.6-9.8v-0.1h3.8v0.1l5.5,9.7c-2.3,0.5-4.9,0.5-7.6-0.1L96.3-61.5L96.3-61.5z
						"/>
					<path class="st4" d="M91.7-56.1C84.8-59.6,81-61.5,81-61.5h7.7v0.1L91.7-56.1z"/>
					<path class="st4" d="M92.5-61.5h3.8v0.1l5.5,9.6c-1.5-0.3-3.1-0.9-4.8-1.7L92.5-61.5L92.5-61.5z"/>
					<path class="st5" d="M128.2-61.6h-9l1.8-3.7C125.7-62.9,128.2-61.6,128.2-61.6z"/>
					<path class="st5" d="M117.9-66.8c1.1,0.6,2.1,1.1,3.1,1.5l-1.8,3.7h-3.8L117.9-66.8z"/>
					<path class="st5" d="M81-61.6c0,0,4.4-0.2,8.7-4.3c0.6-0.6,1.3-1.1,2-1.7l-3,6H81z"/>
					<path class="st5" d="M92.5-61.6l4.4-8.9c1.3-0.5,2.8-0.9,4.3-1.1l-4.9,10H92.5z"/>
					<path class="st5" d="M107.8-61.6l4-8.2c0.2,0.1,0.5,0.2,0.7,0.3c0.8,0.4,1.6,0.8,2.4,1.2l-3.3,6.7H107.8z"/>
					<path class="st5" d="M88.7-61.6l3-6c1.5-1.1,3.2-2.1,5.2-2.9l-4.4,8.9H88.7z"/>
					<path class="st5" d="M115.4-61.6h-3.8l3.3-6.7c1.1,0.5,2.1,1,3.1,1.5L115.4-61.6z"/>
					<path class="st5" d="M104-61.6l4.6-9.4c1.1,0.3,2.1,0.7,3.2,1.2l-4,8.2H104z"/>
					<path class="st5" d="M96.3-61.6l4.9-10c1.2-0.2,2.5-0.2,3.8-0.1l-4.9,10.1H96.3z"/>
					<path class="st5" d="M100.2-61.6l4.9-10.1c1.1,0.1,2.3,0.3,3.5,0.6l-4.6,9.4h-3.8V-61.6z"/>
				</g>
				<g>
					<polygon class="st3" points="42.8,-30.8 42.7,-30.7 38.9,-30.7 39,-30.8 					"/>
					<polygon class="st3" points="46.6,-30.8 46.5,-30.7 42.7,-30.7 42.8,-30.8 					"/>
					<polygon class="st3" points="39,-30.8 38.9,-30.7 35.1,-30.7 35.2,-30.8 					"/>
					<polygon class="st3" points="46.6,-30.8 50.4,-30.8 50.3,-30.7 46.5,-30.7 					"/>
					<polygon class="st3" points="27.6,-30.8 27.5,-30.7 23.7,-30.7 23.8,-30.8 					"/>
					<polygon class="st3" points="31.4,-30.8 31.3,-30.7 27.5,-30.7 27.6,-30.8 					"/>
					<polygon class="st3" points="35.2,-30.8 35.1,-30.7 31.3,-30.7 31.4,-30.8 					"/>
					<polygon class="st3" points="23.7,-30.7 19.9,-30.7 20,-30.8 23.8,-30.8 					"/>
					<path class="st1" d="M31.4-30.8h-3.8v-0.1l-4.1-7.3c0.9-0.5,1.9-1,3-1.5L31.4-30.8L31.4-30.8z"/>
					<path class="st1" d="M27.6-30.8h-3.8v-0.1l-3-5.3c0.8-0.7,1.7-1.3,2.7-1.9L27.6-30.8L27.6-30.8z"/>
					<path class="st1" d="M35.2-30.8h-3.8v-0.1l-5-8.7c1-0.4,2.1-0.7,3.2-1L35.2-30.8L35.2-30.8z"/>
					<path class="st1" d="M23.8-30.8H20v-0.1L18.2-34c0.4-0.3,0.9-0.7,1.3-1.2c0.4-0.4,0.8-0.7,1.2-1.1L23.8-30.8L23.8-30.8z"/>
					<path class="st1" d="M20-30.8h-9.1c0,0,3.6-0.2,7.3-3.2L20-30.8L20-30.8z"/>
					<path class="st1" d="M46.6-30.9l-4.5-8c0.1,0,0.2,0.1,0.3,0.1c1.8,0.9,3.5,1.7,5,2.5l3,5.3v0.1H46.6L46.6-30.9z"/>
					<path class="st1" d="M42.8-30.8H39v-0.1l-5.6-9.8l5.6,9.8v0.1h-3.8v-0.1l-5.5-9.7c2.3-0.5,4.9-0.5,7.6,0.1L42.8-30.8L42.8-30.8
						z"/>
					<path class="st1" d="M47.4-36.2c6.9,3.5,10.7,5.4,10.7,5.4h-7.7v-0.1L47.4-36.2z"/>
					<path class="st1" d="M46.6-30.8h-3.8v-0.1l-5.5-9.6c1.5,0.3,3.1,0.9,4.7,1.7L46.6-30.8L46.6-30.8z"/>
					<path class="st2" d="M10.9-30.7h9l-1.8,3.6C13.4-29.4,10.9-30.7,10.9-30.7z"/>
					<path class="st2" d="M21.2-25.5c-1.1-0.6-2.1-1.1-3.1-1.6l1.8-3.7h3.8L21.2-25.5z"/>
					<path class="st2" d="M58.1-30.7c0,0-4.4,0.2-8.7,4.3c-0.6,0.6-1.3,1.1-2,1.7l3-6H58.1z"/>
					<path class="st2" d="M46.5-30.7l-4.4,8.9c-1.3,0.5-2.8,0.9-4.3,1.1l4.9-10H46.5z"/>
					<path class="st2" d="M31.3-30.7l-4,8.2c-0.2-0.1-0.5-0.2-0.7-0.3c-0.8-0.4-1.6-0.8-2.4-1.2l3.3-6.7H31.3z"/>
					<path class="st2" d="M50.3-30.7l-3,6c-1.5,1.1-3.2,2.1-5.2,2.9l4.4-8.9H50.3z"/>
					<path class="st2" d="M23.7-30.7h3.8L24.2-24c-1.1-0.5-2.1-1-3.1-1.5L23.7-30.7z"/>
					<path class="st2" d="M35.1-30.7l-4.6,9.4c-1-0.3-2.1-0.7-3.2-1.2l4-8.2C31.3-30.7,35.1-30.7,35.1-30.7z"/>
					<path class="st2" d="M42.7-30.7l-4.9,10c-1.2,0.2-2.5,0.2-3.8,0.1l4.9-10.1H42.7z"/>
					<path class="st2" d="M38.9-30.7L34-20.6c-1.1-0.1-2.3-0.3-3.5-0.6l4.6-9.4L38.9-30.7L38.9-30.7z"/>
				</g>
				<g>
					<polygon class="st3" points="42.8,-71.4 42.7,-71.3 38.9,-71.3 39,-71.4 					"/>
					<polygon class="st3" points="46.6,-71.4 46.5,-71.3 42.7,-71.3 42.8,-71.4 					"/>
					<polygon class="st3" points="39,-71.4 38.9,-71.3 35.1,-71.3 35.2,-71.4 					"/>
					<polygon class="st3" points="46.6,-71.4 50.4,-71.4 50.3,-71.3 46.5,-71.3 					"/>
					<polygon class="st3" points="27.6,-71.4 27.5,-71.3 23.7,-71.3 23.8,-71.4 					"/>
					<polygon class="st3" points="31.4,-71.4 31.3,-71.3 27.5,-71.3 27.6,-71.4 					"/>
					<polygon class="st3" points="35.2,-71.4 35.1,-71.3 31.3,-71.3 31.4,-71.4 					"/>
					<polygon class="st3" points="23.7,-71.3 19.9,-71.3 20,-71.4 23.8,-71.4 					"/>
					<path class="st1" d="M31.4-71.4h-3.8v-0.1l-4.1-7.3c0.9-0.5,1.9-1,3-1.5L31.4-71.4L31.4-71.4z"/>
					<path class="st1" d="M27.6-71.4h-3.8v-0.1l-3-5.3c0.8-0.7,1.7-1.3,2.7-1.9L27.6-71.4L27.6-71.4z"/>
					<path class="st1" d="M35.2-71.4h-3.8v-0.1l-5-8.7c1-0.4,2.1-0.7,3.2-1L35.2-71.4L35.2-71.4z"/>
					<path class="st1" d="M23.8-71.4H20v-0.1l-1.8-3.1c0.4-0.4,0.9-0.7,1.3-1.2c0.4-0.4,0.8-0.7,1.2-1.1L23.8-71.4L23.8-71.4z"/>
					<path class="st1" d="M20-71.4h-9.1c0,0,3.6-0.2,7.3-3.2L20-71.4L20-71.4z"/>
					<path class="st1" d="M46.6-71.5l-4.5-8c0.1,0,0.2,0.1,0.3,0.1c1.8,0.9,3.5,1.7,5,2.5l3,5.3v0.1H46.6L46.6-71.5z"/>
					<path class="st1" d="M42.8-71.4H39v-0.1l-5.6-9.8l5.6,9.8v0.1h-3.8v-0.1l-5.5-9.7c2.3-0.5,4.9-0.5,7.6,0.1L42.8-71.4L42.8-71.4
						z"/>
					<path class="st1" d="M47.4-76.8c6.9,3.5,10.7,5.4,10.7,5.4h-7.7v-0.1L47.4-76.8z"/>
					<path class="st1" d="M46.6-71.4h-3.8v-0.1l-5.5-9.6c1.5,0.3,3.1,0.9,4.7,1.7L46.6-71.4L46.6-71.4z"/>
					<path class="st2" d="M10.9-71.3h9l-1.8,3.7C13.4-70,10.9-71.3,10.9-71.3z"/>
					<path class="st2" d="M21.2-66.1c-1.1-0.6-2.1-1.1-3.1-1.5l1.8-3.7h3.8L21.2-66.1z"/>
					<path class="st2" d="M58.1-71.3c0,0-4.4,0.2-8.7,4.3c-0.6,0.6-1.3,1.1-2,1.7l3-6C50.4-71.3,58.1-71.3,58.1-71.3z"/>
					<path class="st2" d="M46.5-71.3l-4.4,8.9c-1.3,0.5-2.8,0.9-4.3,1.1l4.9-10C42.7-71.3,46.5-71.3,46.5-71.3z"/>
					<path class="st2" d="M31.3-71.3l-4,8.2c-0.2-0.1-0.5-0.2-0.7-0.3c-0.8-0.4-1.6-0.8-2.4-1.2l3.3-6.7
						C27.5-71.3,31.3-71.3,31.3-71.3z"/>
					<path class="st2" d="M50.3-71.3l-3,6c-1.5,1.1-3.2,2.1-5.2,2.9l4.4-8.9H50.3z"/>
					<path class="st2" d="M23.7-71.3h3.8l-3.3,6.7c-1.1-0.5-2.1-1-3.1-1.5L23.7-71.3z"/>
					<path class="st2" d="M35.1-71.3l-4.6,9.4c-1-0.3-2.1-0.7-3.2-1.2l4-8.2C31.3-71.3,35.1-71.3,35.1-71.3z"/>
					<path class="st2" d="M42.7-71.3l-4.9,10c-1.2,0.2-2.5,0.2-3.8,0.1l4.9-10.1C38.9-71.3,42.7-71.3,42.7-71.3z"/>
					<path class="st2" d="M38.9-71.3L34-61.2c-1.1-0.1-2.3-0.3-3.5-0.6l4.6-9.4L38.9-71.3L38.9-71.3z"/>
				</g>
				<g>
					<polygon class="st3" points="42.8,-51 42.7,-50.9 38.9,-50.9 39,-51 					"/>
					<polygon class="st3" points="46.6,-51 46.5,-50.9 42.7,-50.9 42.8,-51 					"/>
					<polygon class="st3" points="39,-51 38.9,-50.9 35.1,-50.9 35.2,-51 					"/>
					<polygon class="st3" points="46.6,-51 50.4,-51 50.3,-50.9 46.5,-50.9 					"/>
					<polygon class="st3" points="27.6,-51 27.5,-50.9 23.7,-50.9 23.8,-51 					"/>
					<polygon class="st3" points="31.4,-51 31.3,-50.9 27.5,-50.9 27.6,-51 					"/>
					<polygon class="st3" points="35.2,-51 35.1,-50.9 31.3,-50.9 31.4,-51 					"/>
					<polygon class="st3" points="23.7,-50.9 19.9,-50.9 20,-51 23.8,-51 					"/>
					<path class="st1" d="M31.4-51h-3.8v-0.1l-4.1-7.3c0.9-0.5,1.9-1,3-1.5L31.4-51L31.4-51z"/>
					<path class="st1" d="M27.6-51h-3.8v-0.1l-3-5.3c0.8-0.7,1.7-1.3,2.7-1.9L27.6-51L27.6-51z"/>
					<path class="st1" d="M35.2-51h-3.8v-0.1l-5-8.7c1-0.4,2.1-0.7,3.2-1L35.2-51L35.2-51z"/>
					<path class="st1" d="M23.8-51H20v-0.1l-1.8-3.1c0.4-0.4,0.9-0.7,1.3-1.2c0.4-0.4,0.8-0.7,1.2-1.1L23.8-51L23.8-51z"/>
					<path class="st1" d="M20-51h-9.1c0,0,3.6-0.2,7.3-3.2L20-51L20-51z"/>
					<path class="st1" d="M46.6-51.1l-4.5-8c0.1,0,0.2,0.1,0.3,0.1c1.8,0.9,3.5,1.7,5,2.5l3,5.3v0.1L46.6-51.1L46.6-51.1z"/>
					<path class="st1" d="M42.8-51H39v-0.1l-5.6-9.8l5.6,9.8v0.1h-3.8v-0.1l-5.5-9.7c2.3-0.5,4.9-0.5,7.6,0.1L42.8-51L42.8-51z"/>
					<path class="st1" d="M47.4-56.4c6.9,3.5,10.7,5.4,10.7,5.4h-7.7v-0.1L47.4-56.4z"/>
					<path class="st1" d="M46.6-51h-3.8v-0.1l-5.5-9.6c1.5,0.3,3.1,0.9,4.7,1.7L46.6-51L46.6-51z"/>
					<path class="st2" d="M10.9-50.9h9l-1.8,3.7C13.4-49.6,10.9-50.9,10.9-50.9z"/>
					<path class="st2" d="M21.2-45.7c-1.1-0.6-2.1-1.1-3.1-1.5l1.8-3.7h3.8L21.2-45.7z"/>
					<path class="st2" d="M58.1-50.9c0,0-4.4,0.2-8.7,4.3c-0.6,0.6-1.3,1.1-2,1.7l3-6H58.1z"/>
					<path class="st2" d="M46.5-50.9L42.1-42c-1.3,0.5-2.8,0.9-4.3,1.1l4.9-10H46.5z"/>
					<path class="st2" d="M31.3-50.9l-4,8.2c-0.2-0.1-0.5-0.2-0.7-0.3c-0.8-0.4-1.6-0.8-2.4-1.2l3.3-6.7H31.3z"/>
					<path class="st2" d="M50.3-50.9l-3,6c-1.5,1.1-3.2,2.1-5.2,2.9l4.4-8.9H50.3z"/>
					<path class="st2" d="M23.7-50.9h3.8l-3.3,6.7c-1.1-0.5-2.1-1-3.1-1.5L23.7-50.9z"/>
					<path class="st2" d="M35.1-50.9l-4.6,9.4c-1-0.3-2.1-0.7-3.2-1.2l4-8.2H35.1z"/>
					<path class="st2" d="M42.7-50.9l-4.9,10c-1.2,0.2-2.5,0.2-3.8,0.1l4.9-10.1H42.7z"/>
					<path class="st2" d="M38.9-50.9L34-40.8c-1.1-0.1-2.3-0.3-3.5-0.6l4.6-9.5H38.9z"/>
				</g>
				<g>
					<polygon class="st6" points="89.2,-30.8 89.2,-30.7 85.4,-30.7 85.4,-30.8 					"/>
					<polygon class="st6" points="93,-30.8 93,-30.7 89.2,-30.7 89.2,-30.8 					"/>
					<polygon class="st6" points="85.4,-30.8 85.4,-30.7 81.6,-30.7 81.6,-30.8 					"/>
					<polygon class="st6" points="93,-30.8 96.8,-30.8 96.8,-30.7 93,-30.7 					"/>
					<polygon class="st6" points="74,-30.8 74,-30.7 70.2,-30.7 70.2,-30.8 					"/>
					<polygon class="st6" points="77.8,-30.8 77.8,-30.7 74,-30.7 74,-30.8 					"/>
					<polygon class="st6" points="81.6,-30.8 81.6,-30.7 77.8,-30.7 77.8,-30.8 					"/>
					<polygon class="st6" points="70.2,-30.7 66.4,-30.7 66.4,-30.8 70.2,-30.8 					"/>
					<path class="st1" d="M77.8-30.8H74v-0.1l-4.1-7.3c0.9-0.5,1.9-1,3-1.5L77.8-30.8L77.8-30.8z"/>
					<path class="st1" d="M74-30.8h-3.8v-0.1l-3-5.3c0.8-0.7,1.7-1.3,2.7-1.9L74-30.8L74-30.8z"/>
					<path class="st1" d="M81.6-30.8h-3.8v-0.1l-5-8.7c1-0.4,2.1-0.7,3.2-1L81.6-30.8L81.6-30.8z"/>
					<path class="st1" d="M70.2-30.8h-3.8v-0.1L64.6-34c0.4-0.3,0.9-0.7,1.3-1.2c0.4-0.4,0.8-0.7,1.2-1.1L70.2-30.8L70.2-30.8z"/>
					<path class="st1" d="M66.4-30.8h-9.1c0,0,3.6-0.2,7.3-3.2L66.4-30.8L66.4-30.8z"/>
					<path class="st1" d="M93.1-30.9l-4.5-8c0.1,0,0.2,0.1,0.3,0.1c1.8,0.9,3.5,1.7,5,2.5l3,5.3v0.1H93.1L93.1-30.9z"/>
					<path class="st1" d="M89.2-30.8h-3.8v-0.1l-5.6-9.8l5.6,9.8v0.1h-3.8v-0.1l-5.5-9.7c2.3-0.5,4.9-0.5,7.6,0.1L89.2-30.8
						L89.2-30.8z"/>
					<path class="st1" d="M93.8-36.2c6.9,3.5,10.7,5.4,10.7,5.4h-7.7v-0.1L93.8-36.2z"/>
					<path class="st1" d="M93-30.8h-3.8v-0.1l-5.5-9.6c1.5,0.3,3.1,0.9,4.7,1.7L93-30.8L93-30.8z"/>
					<path class="st2" d="M57.3-30.7h9L64.5-27C59.9-29.4,57.3-30.7,57.3-30.7z"/>
					<path class="st2" d="M67.6-25.5c-1.1-0.6-2.1-1.1-3.1-1.5l1.8-3.7h3.8L67.6-25.5z"/>
					<path class="st2" d="M104.5-30.7c0,0-4.4,0.2-8.7,4.3c-0.6,0.6-1.3,1.1-2,1.7l3-6H104.5z"/>
					<path class="st2" d="M93-30.7l-4.4,8.9c-1.3,0.5-2.8,0.9-4.3,1.1l4.9-10H93z"/>
					<path class="st2" d="M77.8-30.7l-4,8.2c-0.2-0.1-0.5-0.2-0.7-0.3c-0.8-0.4-1.6-0.8-2.4-1.2l3.3-6.7H77.8z"/>
					<path class="st2" d="M96.8-30.7l-3,6c-1.5,1.1-3.2,2.1-5.2,2.9l4.4-8.9H96.8z"/>
					<path class="st2" d="M70.2-30.7H74L70.7-24c-1.1-0.5-2.1-1.1-3.1-1.5L70.2-30.7z"/>
					<path class="st2" d="M81.6-30.7L77-21.3c-1.1-0.3-2.1-0.7-3.2-1.2l4-8.2C77.8-30.7,81.6-30.7,81.6-30.7z"/>
					<path class="st2" d="M89.2-30.7l-4.9,10c-1.2,0.2-2.5,0.2-3.8,0.1l4.9-10.1H89.2z"/>
					<path class="st2" d="M85.4-30.7l-4.9,10.1c-1.1-0.1-2.3-0.3-3.5-0.6l4.6-9.4L85.4-30.7L85.4-30.7z"/>
				</g>
				<g>
					<polygon class="st6" points="89.2,-71.4 89.2,-71.3 85.4,-71.3 85.4,-71.4 					"/>
					<polygon class="st6" points="93,-71.4 93,-71.3 89.2,-71.3 89.2,-71.4 					"/>
					<polygon class="st6" points="85.4,-71.4 85.4,-71.3 81.6,-71.3 81.6,-71.4 					"/>
					<polygon class="st6" points="93,-71.4 96.8,-71.4 96.8,-71.3 93,-71.3 					"/>
					<polygon class="st6" points="74,-71.4 74,-71.3 70.2,-71.3 70.2,-71.4 					"/>
					<polygon class="st6" points="77.8,-71.4 77.8,-71.3 74,-71.3 74,-71.4 					"/>
					<polygon class="st6" points="81.6,-71.4 81.6,-71.3 77.8,-71.3 77.8,-71.4 					"/>
					<polygon class="st6" points="70.2,-71.3 66.4,-71.3 66.4,-71.4 70.2,-71.4 					"/>
					<path class="st1" d="M77.8-71.4H74v-0.1l-4.1-7.3c0.9-0.5,1.9-1,3-1.5L77.8-71.4L77.8-71.4z"/>
					<path class="st1" d="M74-71.4h-3.8v-0.1l-3-5.3c0.8-0.7,1.7-1.3,2.7-1.9L74-71.4L74-71.4z"/>
					<path class="st1" d="M81.6-71.4h-3.8v-0.1l-5-8.7c1-0.4,2.1-0.7,3.2-1L81.6-71.4L81.6-71.4z"/>
					<path class="st1" d="M70.2-71.4h-3.8v-0.1l-1.8-3.1c0.4-0.4,0.9-0.7,1.3-1.2c0.4-0.4,0.8-0.7,1.2-1.1L70.2-71.4L70.2-71.4z"/>
					<path class="st1" d="M66.4-71.4h-9.1c0,0,3.6-0.2,7.3-3.2L66.4-71.4L66.4-71.4z"/>
					<path class="st1" d="M93.1-71.5l-4.5-8c0.1,0,0.2,0.1,0.3,0.1c1.8,0.9,3.5,1.8,5,2.5l3,5.3v0.1H93.1L93.1-71.5z"/>
					<path class="st1" d="M89.2-71.4h-3.8v-0.1l-5.6-9.8l5.6,9.8v0.1h-3.8v-0.1l-5.5-9.7c2.3-0.5,4.9-0.5,7.6,0.1L89.2-71.4
						L89.2-71.4z"/>
					<path class="st1" d="M93.8-76.8c6.9,3.5,10.7,5.4,10.7,5.4h-7.7v-0.1L93.8-76.8z"/>
					<path class="st1" d="M93-71.4h-3.8v-0.1l-5.5-9.6c1.5,0.3,3.1,0.9,4.7,1.7L93-71.4L93-71.4z"/>
					<path class="st2" d="M57.3-71.3h9l-1.8,3.7C59.9-70,57.3-71.3,57.3-71.3z"/>
					<path class="st2" d="M67.6-66.1c-1.1-0.6-2.1-1.1-3.1-1.5l1.8-3.7h3.8L67.6-66.1z"/>
					<path class="st2" d="M104.5-71.3c0,0-4.4,0.2-8.7,4.3c-0.6,0.6-1.3,1.1-2,1.7l3-6C96.8-71.3,104.5-71.3,104.5-71.3z"/>
					<path class="st2" d="M93-71.3l-4.4,8.9c-1.3,0.5-2.8,0.9-4.3,1.1l4.9-10C89.2-71.3,93-71.3,93-71.3z"/>
					<path class="st2" d="M77.8-71.3l-4,8.2c-0.2-0.1-0.5-0.2-0.7-0.3c-0.8-0.4-1.6-0.8-2.4-1.2l3.3-6.7
						C74-71.3,77.8-71.3,77.8-71.3z"/>
					<path class="st2" d="M96.8-71.3l-3,6c-1.5,1.1-3.2,2.1-5.2,2.9l4.4-8.9H96.8z"/>
					<path class="st2" d="M70.2-71.3H74l-3.3,6.7c-1.1-0.5-2.1-1.1-3.1-1.5L70.2-71.3z"/>
					<path class="st2" d="M81.6-71.3L77-61.9c-1.1-0.3-2.1-0.7-3.2-1.2l4-8.2C77.8-71.3,81.6-71.3,81.6-71.3z"/>
					<path class="st2" d="M89.2-71.3l-4.9,10c-1.2,0.2-2.5,0.2-3.8,0.1l4.9-10.1C85.4-71.3,89.2-71.3,89.2-71.3z"/>
					<path class="st2" d="M85.4-71.3l-4.9,10.1c-1.1-0.1-2.3-0.3-3.5-0.6l4.6-9.4L85.4-71.3L85.4-71.3z"/>
				</g>
				<g>
					<polygon class="st6" points="89.2,-51 89.2,-50.9 85.4,-50.9 85.4,-51 					"/>
					<polygon class="st6" points="93,-51 93,-50.9 89.2,-50.9 89.2,-51 					"/>
					<polygon class="st6" points="85.4,-51 85.4,-50.9 81.6,-50.9 81.6,-51 					"/>
					<polygon class="st6" points="93,-51 96.8,-51 96.8,-50.9 93,-50.9 					"/>
					<polygon class="st6" points="74,-51 74,-50.9 70.2,-50.9 70.2,-51 					"/>
					<polygon class="st6" points="77.8,-51 77.8,-50.9 74,-50.9 74,-51 					"/>
					<polygon class="st6" points="81.6,-51 81.6,-50.9 77.8,-50.9 77.8,-51 					"/>
					<polygon class="st6" points="70.2,-50.9 66.4,-50.9 66.4,-51 70.2,-51 					"/>
					<path class="st1" d="M77.8-51H74v-0.1l-4.1-7.3c0.9-0.5,1.9-1,3-1.5L77.8-51L77.8-51z"/>
					<path class="st1" d="M74-51h-3.8v-0.1l-3-5.3c0.8-0.7,1.7-1.3,2.7-1.9L74-51L74-51z"/>
					<path class="st1" d="M81.6-51h-3.8v-0.1l-5-8.7c1-0.4,2.1-0.7,3.2-1L81.6-51L81.6-51z"/>
					<path class="st1" d="M70.2-51h-3.8v-0.1l-1.8-3.1c0.4-0.4,0.9-0.7,1.3-1.2c0.4-0.4,0.8-0.7,1.2-1.1L70.2-51L70.2-51z"/>
					<path class="st1" d="M66.4-51h-9.1c0,0,3.6-0.2,7.3-3.2L66.4-51L66.4-51z"/>
					<path class="st1" d="M93.1-51.1l-4.5-8c0.1,0,0.2,0.1,0.3,0.1c1.8,0.9,3.5,1.7,5,2.5l3,5.3v0.1L93.1-51.1L93.1-51.1z"/>
					<path class="st1" d="M89.2-51h-3.8v-0.1l-5.5-9.8l5.6,9.8v0.1h-3.8v-0.1l-5.6-9.7c2.3-0.5,4.9-0.5,7.6,0.1L89.2-51L89.2-51z"/>
					<path class="st1" d="M93.8-56.4c6.9,3.5,10.7,5.4,10.7,5.4h-7.7v-0.1L93.8-56.4z"/>
					<path class="st1" d="M93-51h-3.8v-0.1l-5.5-9.6c1.5,0.3,3.1,0.9,4.7,1.7L93-51L93-51z"/>
					<path class="st2" d="M57.3-50.9h9l-1.8,3.7C59.9-49.6,57.3-50.9,57.3-50.9z"/>
					<path class="st2" d="M67.6-45.7c-1.1-0.6-2.1-1.1-3.1-1.5l1.8-3.7h3.8L67.6-45.7z"/>
					<path class="st2" d="M104.5-50.9c0,0-4.4,0.2-8.7,4.3c-0.6,0.6-1.3,1.1-2,1.7l3-6H104.5z"/>
					<path class="st2" d="M93-50.9L88.6-42c-1.3,0.5-2.8,0.9-4.3,1.1l4.9-10H93z"/>
					<path class="st2" d="M77.8-50.9l-4,8.2c-0.2-0.1-0.5-0.2-0.7-0.3c-0.8-0.4-1.6-0.8-2.4-1.2l3.3-6.7H77.8z"/>
					<path class="st2" d="M96.8-50.9l-3,6c-1.5,1.1-3.2,2.1-5.2,2.9l4.4-8.9H96.8z"/>
					<path class="st2" d="M70.2-50.9H74l-3.3,6.7c-1.1-0.5-2.1-1.1-3.1-1.5L70.2-50.9z"/>
					<path class="st2" d="M81.6-50.9L77-41.5c-1.1-0.3-2.1-0.7-3.2-1.2l4-8.2H81.6z"/>
					<path class="st2" d="M89.2-50.9l-4.9,10c-1.2,0.2-2.5,0.2-3.8,0.1l4.9-10.1H89.2z"/>
					<path class="st2" d="M85.4-50.9l-4.9,10.1c-1.1-0.1-2.3-0.3-3.5-0.6l4.6-9.4L85.4-50.9L85.4-50.9z"/>
				</g>
			</g>
			<g>
				<g>
					<polygon class="st3" points="6.8,-40.4 6.9,-40.5 10.7,-40.5 10.6,-40.4 					"/>
					<polygon class="st3" points="18.2,-40.4 18.3,-40.5 22.1,-40.5 22,-40.4 					"/>
					<polygon class="st3" points="14.4,-40.4 14.5,-40.5 18.3,-40.5 18.2,-40.4 					"/>
					<polygon class="st3" points="10.6,-40.4 10.7,-40.5 14.5,-40.5 14.4,-40.4 					"/>
					<polygon class="st3" points="22.1,-40.5 25.9,-40.5 25.8,-40.4 22,-40.4 					"/>
					<path class="st4" d="M14.4-40.4h3.8v0.1l4.1,7.3c-0.9,0.5-1.9,1-3,1.5L14.4-40.4L14.4-40.4z"/>
					<path class="st4" d="M18.2-40.4H22v0.1l3,5.3c-0.8,0.7-1.7,1.3-2.7,1.9L18.2-40.4L18.2-40.4z"/>
					<path class="st4" d="M10.6-40.4h3.8v0.1l5,8.7c-1,0.4-2.1,0.7-3.2,1L10.6-40.4L10.6-40.4z"/>
					<path class="st4" d="M22-40.4h3.8v0.1l1.8,3.1c-0.4,0.3-0.9,0.7-1.3,1.2c-0.4,0.4-0.8,0.7-1.2,1.1L22-40.4L22-40.4z"/>
					<path class="st4" d="M25.8-40.4h9.1c0,0-3.6,0.2-7.3,3.2L25.8-40.4L25.8-40.4z"/>
					<path class="st4" d="M3-40.4h3.8v0.1l5.6,9.8l-5.6-9.8v-0.1h3.8v0.1l5.5,9.7c-2.3,0.5-4.9,0.5-7.6-0.1L3-40.4L3-40.4z"/>
					<path class="st5" d="M34.9-40.5h-9l1.8-3.7C32.4-41.8,34.9-40.5,34.9-40.5z"/>
					<path class="st5" d="M24.6-45.7c1.1,0.6,2.1,1.1,3.1,1.5l-1.8,3.7h-3.8L24.6-45.7z"/>
					<path class="st5" d="M14.5-40.5l4-8.2c0.2,0.1,0.5,0.2,0.7,0.3c0.8,0.4,1.6,0.8,2.4,1.2l-3.3,6.7H14.5z"/>
					<path class="st5" d="M22.1-40.5h-3.8l3.3-6.7c1.1,0.5,2.1,1,3.1,1.5L22.1-40.5z"/>
					<path class="st5" d="M10.7-40.5l4.6-9.4c1.1,0.3,2.1,0.7,3.2,1.2l-4,8.2H10.7z"/>
					<path class="st5" d="M3.1-40.5l4.9-10c1.2-0.2,2.5-0.2,3.8-0.1L6.9-40.5H3.1z"/>
					<path class="st5" d="M6.9-40.5l4.9-10.1c1.1,0.1,2.3,0.3,3.5,0.6l-4.6,9.4L6.9-40.5L6.9-40.5z"/>
				</g>
				<g>
					<polygon class="st3" points="6.8,-81 6.9,-81.1 10.7,-81.1 10.6,-81 					"/>
					<polygon class="st3" points="18.2,-81 18.3,-81.1 22.1,-81.1 22,-81 					"/>
					<polygon class="st3" points="14.4,-81 14.5,-81.1 18.3,-81.1 18.2,-81 					"/>
					<polygon class="st3" points="10.6,-81 10.7,-81.1 14.5,-81.1 14.4,-81 					"/>
					<polygon class="st3" points="22.1,-81.1 25.9,-81.1 25.8,-81 22,-81 					"/>
					<path class="st4" d="M14.4-81h3.8v0.1l4.1,7.3c-0.9,0.5-1.9,1-3,1.5L14.4-81L14.4-81z"/>
					<path class="st4" d="M18.2-81H22v0.1l3,5.3c-0.8,0.7-1.7,1.3-2.7,1.9L18.2-81L18.2-81z"/>
					<path class="st4" d="M10.6-81h3.8v0.1l5,8.7c-1,0.4-2.1,0.7-3.2,1L10.6-81L10.6-81z"/>
					<path class="st4" d="M22-81h3.8v0.1l1.8,3.1c-0.4,0.3-0.9,0.7-1.3,1.2c-0.4,0.4-0.8,0.7-1.2,1.1L22-81L22-81z"/>
					<path class="st4" d="M25.8-81h9.1c0,0-3.6,0.2-7.3,3.2L25.8-81L25.8-81z"/>
					<path class="st4" d="M3-81h3.8v0.1l5.6,9.8l-5.6-9.8V-81h3.8v0.1l5.5,9.7c-2.3,0.5-4.9,0.5-7.6-0.1L3-81L3-81z"/>
					<path class="st5" d="M34.9-81.1h-9l1.8-3.7C32.4-82.4,34.9-81.1,34.9-81.1z"/>
					<path class="st5" d="M24.6-86.3c1.1,0.6,2.1,1.1,3.1,1.5l-1.8,3.7h-3.8L24.6-86.3z"/>
					<path class="st5" d="M14.5-81.1l4-8.2c0.2,0.1,0.5,0.2,0.7,0.3c0.8,0.4,1.6,0.8,2.4,1.2l-3.3,6.7H14.5z"/>
					<path class="st5" d="M22.1-81.1h-3.8l3.3-6.7c1.1,0.5,2.1,1,3.1,1.5L22.1-81.1z"/>
					<path class="st5" d="M10.7-81.1l4.6-9.4c1.1,0.3,2.1,0.7,3.2,1.2l-4,8.2H10.7z"/>
					<path class="st5" d="M3.1-81.1l4.9-10c1.2-0.2,2.5-0.2,3.8-0.1L6.9-81.1H3.1z"/>
					<path class="st5" d="M6.9-81.1l4.9-10.1c1.1,0.1,2.3,0.3,3.5,0.6l-4.6,9.4L6.9-81.1L6.9-81.1z"/>
				</g>
				<g>
					<polygon class="st3" points="6.8,-61.5 6.9,-61.6 10.7,-61.6 10.6,-61.5 					"/>
					<polygon class="st3" points="18.2,-61.5 18.3,-61.6 22.1,-61.6 22,-61.5 					"/>
					<polygon class="st3" points="14.4,-61.5 14.5,-61.6 18.3,-61.6 18.2,-61.5 					"/>
					<polygon class="st3" points="10.6,-61.5 10.7,-61.6 14.5,-61.6 14.4,-61.5 					"/>
					<polygon class="st3" points="22.1,-61.6 25.9,-61.6 25.8,-61.5 22,-61.5 					"/>
					<path class="st4" d="M14.4-61.5h3.8v0.1l4.1,7.3c-0.9,0.5-1.9,1-3,1.5L14.4-61.5L14.4-61.5z"/>
					<path class="st4" d="M18.2-61.5H22v0.1l3,5.3c-0.8,0.7-1.7,1.3-2.7,1.9L18.2-61.5L18.2-61.5z"/>
					<path class="st4" d="M10.6-61.5h3.8v0.1l5,8.7c-1,0.4-2.1,0.7-3.2,1L10.6-61.5L10.6-61.5z"/>
					<path class="st4" d="M22-61.5h3.8v0.1l1.8,3.1c-0.4,0.3-0.9,0.7-1.3,1.2c-0.4,0.4-0.8,0.7-1.2,1.1L22-61.5L22-61.5z"/>
					<path class="st4" d="M25.8-61.5h9.1c0,0-3.6,0.2-7.3,3.2L25.8-61.5L25.8-61.5z"/>
					<path class="st4" d="M3-61.5h3.8v0.1l5.6,9.8l-5.6-9.8v-0.1h3.8v0.1l5.5,9.7c-2.3,0.5-4.9,0.5-7.6-0.1L3-61.5L3-61.5z"/>
					<path class="st5" d="M34.9-61.6h-9l1.8-3.7C32.4-62.9,34.9-61.6,34.9-61.6z"/>
					<path class="st5" d="M24.6-66.8c1.1,0.6,2.1,1.1,3.1,1.5l-1.8,3.7h-3.8L24.6-66.8z"/>
					<path class="st5" d="M14.5-61.6l4-8.2c0.2,0.1,0.5,0.2,0.7,0.3c0.8,0.4,1.6,0.8,2.4,1.2l-3.3,6.7H14.5z"/>
					<path class="st5" d="M22.1-61.6h-3.8l3.3-6.7c1.1,0.5,2.1,1,3.1,1.5L22.1-61.6z"/>
					<path class="st5" d="M10.7-61.6l4.6-9.4c1.1,0.3,2.1,0.7,3.2,1.2l-4,8.2H10.7z"/>
					<path class="st5" d="M3.1-61.6l4.9-10c1.2-0.2,2.5-0.2,3.8-0.1L6.9-61.6H3.1z"/>
					<path class="st5" d="M6.9-61.6l4.9-10.1c1.1,0.1,2.3,0.3,3.5,0.6l-4.6,9.4H6.9V-61.6z"/>
				</g>
				<g>
					<path class="st1" d="M0.5-36.2c6.9,3.5,10.7,5.4,10.7,5.4H3.6v-0.1L0.5-36.2z"/>
					<path class="st2" d="M11.2-30.7c0,0-4.4,0.2-8.7,4.3c-0.6,0.6-1.3,1.1-2,1.7l3-6H11.2z"/>
				</g>
				<g>
					<path class="st1" d="M0.5-76.8c6.9,3.5,10.7,5.4,10.7,5.4H3.6v-0.1L0.5-76.8z"/>
					<path class="st2" d="M11.2-71.3c0,0-4.4,0.2-8.7,4.3c-0.6,0.6-1.3,1.1-2,1.7l3-6C3.5-71.3,11.2-71.3,11.2-71.3z"/>
				</g>
				<g>
					<path class="st1" d="M0.5-56.4C7.4-52.9,11.2-51,11.2-51H3.6v-0.1L0.5-56.4z"/>
					<path class="st2" d="M11.2-50.9c0,0-4.4,0.2-8.7,4.3c-0.6,0.6-1.3,1.1-2,1.7l3-6H11.2z"/>
				</g>
			</g>
			<g>
				<g>
					<path class="st1" d="M113.2-30.8h-9.1c0,0,3.6-0.2,7.3-3.2L113.2-30.8L113.2-30.8z"/>
					<path class="st2" d="M104.2-30.7h9l-1.8,3.7C106.7-29.4,104.2-30.7,104.2-30.7z"/>
				</g>
				<g>
					<path class="st1" d="M113.2-10.4h-9.1c0,0,3.6-0.2,7.3-3.2L113.2-10.4L113.2-10.4z"/>
					<path class="st2" d="M104.2-10.3h9l-1.8,3.7C106.7-9,104.2-10.3,104.2-10.3z"/>
				</g>
			</g>
			<g>
				<g>
					<polygon class="st3" points="48.5,-40.4 48.6,-40.5 52.4,-40.5 52.3,-40.4 					"/>
					<polygon class="st3" points="44.7,-40.4 44.8,-40.5 48.6,-40.5 48.5,-40.4 					"/>
					<polygon class="st3" points="52.3,-40.4 52.4,-40.5 56.2,-40.5 56.1,-40.4 					"/>
					<polygon class="st3" points="44.7,-40.4 40.9,-40.4 41,-40.5 44.8,-40.5 					"/>
					<polygon class="st3" points="63.7,-40.4 63.8,-40.5 67.6,-40.5 67.5,-40.4 					"/>
					<polygon class="st3" points="59.9,-40.4 60,-40.5 63.8,-40.5 63.7,-40.4 					"/>
					<polygon class="st3" points="56.1,-40.4 56.2,-40.5 60,-40.5 59.9,-40.4 					"/>
					<polygon class="st3" points="67.6,-40.5 71.4,-40.5 71.3,-40.4 67.5,-40.4 					"/>
					<path class="st4" d="M59.9-40.4h3.8v0.1l4.1,7.3c-0.9,0.5-1.9,1-3,1.5L59.9-40.4L59.9-40.4z"/>
					<path class="st4" d="M63.7-40.4h3.8v0.1l3,5.3c-0.8,0.7-1.7,1.3-2.7,1.9L63.7-40.4L63.7-40.4z"/>
					<path class="st4" d="M56.1-40.4h3.8v0.1l5,8.7c-1,0.4-2.1,0.7-3.2,1L56.1-40.4L56.1-40.4z"/>
					<path class="st4" d="M67.5-40.4h3.8v0.1l1.8,3.1c-0.4,0.3-0.9,0.7-1.3,1.2c-0.4,0.4-0.8,0.7-1.2,1.1L67.5-40.4L67.5-40.4z"/>
					<path class="st4" d="M71.3-40.4h9.1c0,0-3.6,0.2-7.3,3.2L71.3-40.4L71.3-40.4z"/>
					<path class="st4" d="M44.7-40.4l4.5,8c-0.1,0-0.2-0.1-0.3-0.1c-1.8-0.9-3.5-1.8-5-2.5l-3-5.3v-0.1L44.7-40.4L44.7-40.4z"/>
					<path class="st4" d="M48.5-40.4h3.8v0.1l5.6,9.8l-5.6-9.8v-0.1h3.8v0.1l5.5,9.7c-2.3,0.5-4.9,0.5-7.6-0.1L48.5-40.4L48.5-40.4z
						"/>
					<path class="st4" d="M43.9-35c-6.9-3.5-10.7-5.4-10.7-5.4h7.7v0.1L43.9-35z"/>
					<path class="st4" d="M44.7-40.4h3.8v0.1l5.5,9.6c-1.5-0.3-3.1-0.9-4.7-1.7L44.7-40.4L44.7-40.4z"/>
					<path class="st5" d="M80.4-40.5h-9l1.8-3.7C77.9-41.8,80.4-40.5,80.4-40.5z"/>
					<path class="st5" d="M70.1-45.7c1.1,0.6,2.1,1.1,3.1,1.5l-1.8,3.7h-3.8L70.1-45.7z"/>
					<path class="st5" d="M33.2-40.5c0,0,4.4-0.2,8.7-4.3c0.6-0.6,1.3-1.1,2-1.7l-3,6H33.2z"/>
					<path class="st5" d="M44.8-40.5l4.4-8.9c1.3-0.5,2.8-0.9,4.3-1.1l-4.9,10H44.8z"/>
					<path class="st5" d="M60-40.5l4-8.2c0.2,0.1,0.5,0.2,0.7,0.3c0.8,0.4,1.6,0.8,2.4,1.2l-3.3,6.7H60z"/>
					<path class="st5" d="M41-40.5l3-6c1.5-1.1,3.2-2.1,5.2-2.9l-4.4,8.9H41z"/>
					<path class="st5" d="M67.6-40.5h-3.8l3.3-6.7c1.1,0.5,2.1,1,3.1,1.5L67.6-40.5z"/>
					<path class="st5" d="M56.2-40.5l4.6-9.4c1,0.3,2.1,0.7,3.2,1.2l-4,8.2H56.2z"/>
					<path class="st5" d="M48.6-40.5l4.9-10c1.2-0.2,2.5-0.2,3.8-0.1l-4.9,10.1H48.6z"/>
					<path class="st5" d="M52.4-40.5l4.9-10.1c1.1,0.1,2.3,0.3,3.5,0.6l-4.6,9.4L52.4-40.5L52.4-40.5z"/>
				</g>
				<g>
					<polygon class="st3" points="48.5,-20.9 48.6,-21 52.4,-21 52.3,-20.9 					"/>
					<polygon class="st3" points="44.7,-20.9 44.8,-21 48.6,-21 48.5,-20.9 					"/>
					<polygon class="st3" points="52.3,-20.9 52.4,-21 56.2,-21 56.1,-20.9 					"/>
					<polygon class="st3" points="44.7,-20.9 40.9,-20.9 41,-21 44.8,-21 					"/>
					<polygon class="st3" points="63.7,-20.9 63.8,-21 67.6,-21 67.5,-20.9 					"/>
					<polygon class="st3" points="59.9,-20.9 60,-21 63.8,-21 63.7,-20.9 					"/>
					<polygon class="st3" points="56.1,-20.9 56.2,-21 60,-21 59.9,-20.9 					"/>
					<polygon class="st3" points="67.6,-21 71.4,-21 71.3,-20.9 67.5,-20.9 					"/>
					<path class="st4" d="M59.9-20.9h3.8v0.1l4.1,7.3c-0.9,0.5-1.9,1-3,1.5L59.9-20.9L59.9-20.9z"/>
					<path class="st4" d="M63.7-20.9h3.8v0.1l3,5.3c-0.8,0.7-1.7,1.3-2.7,1.9L63.7-20.9L63.7-20.9z"/>
					<path class="st4" d="M56.1-20.9h3.8v0.1l5,8.7c-1,0.4-2.1,0.7-3.2,1L56.1-20.9L56.1-20.9z"/>
					<path class="st4" d="M67.5-20.9h3.8v0.1l1.8,3.1c-0.4,0.3-0.9,0.7-1.3,1.2c-0.4,0.4-0.8,0.7-1.2,1.1L67.5-20.9L67.5-20.9z"/>
					<path class="st4" d="M71.3-20.9h9.1c0,0-3.6,0.2-7.3,3.2L71.3-20.9L71.3-20.9z"/>
					<path class="st4" d="M44.7-20.8l4.5,8c-0.1,0-0.2-0.1-0.3-0.1c-1.8-0.9-3.5-1.7-5-2.5l-3-5.3v-0.1H44.7L44.7-20.8z"/>
					<path class="st4" d="M48.5-20.9h3.8v0.1l5.6,9.8l-5.6-9.8v-0.1h3.8v0.1l5.5,9.7c-2.3,0.5-4.9,0.5-7.6-0.1L48.5-20.9L48.5-20.9z
						"/>
					<path class="st4" d="M43.9-15.5C37-19,33.2-20.9,33.2-20.9h7.7v0.1L43.9-15.5z"/>
					<path class="st4" d="M44.7-20.9h3.8v0.1l5.5,9.6c-1.5-0.3-3.1-0.9-4.7-1.7L44.7-20.9L44.7-20.9z"/>
					<path class="st5" d="M80.4-21h-9l1.8-3.7C77.9-22.3,80.4-21,80.4-21z"/>
					<path class="st5" d="M70.1-26.2c1.1,0.6,2.1,1.1,3.1,1.5L71.4-21h-3.8L70.1-26.2z"/>
					<path class="st5" d="M33.2-21c0,0,4.4-0.2,8.7-4.3c0.6-0.6,1.3-1.1,2-1.7l-3,6H33.2z"/>
					<path class="st5" d="M44.8-21l4.3-8.9c1.3-0.5,2.8-0.9,4.3-1.1l-4.9,10H44.8z"/>
					<path class="st5" d="M60-21l4-8.2c0.2,0.1,0.5,0.2,0.7,0.3c0.8,0.4,1.6,0.8,2.4,1.2L63.8-21H60z"/>
					<path class="st5" d="M41-21l3-6c1.5-1.1,3.2-2.1,5.2-2.9L44.8-21H41z"/>
					<path class="st5" d="M67.6-21h-3.8l3.3-6.7c1.1,0.5,2.1,1,3.1,1.5L67.6-21z"/>
					<path class="st5" d="M56.2-21l4.6-9.4c1,0.3,2.1,0.7,3.2,1.2L60-21C60-21,56.2-21,56.2-21z"/>
					<path class="st5" d="M48.6-21l4.9-10c1.2-0.2,2.5-0.2,3.8-0.1L52.4-21H48.6z"/>
					<path class="st5" d="M52.4-21l4.9-10.1c1.1,0.1,2.3,0.3,3.5,0.6l-4.6,9.4L52.4-21L52.4-21z"/>
				</g>
				<g>
					<polygon class="st3" points="96.3,-40.4 96.3,-40.5 100.2,-40.5 100.1,-40.4 					"/>
					<polygon class="st3" points="92.5,-40.4 92.5,-40.5 96.3,-40.5 96.3,-40.4 					"/>
					<polygon class="st3" points="100.1,-40.4 100.2,-40.5 104,-40.5 103.9,-40.4 					"/>
					<polygon class="st3" points="92.5,-40.4 88.7,-40.4 88.7,-40.5 92.5,-40.5 					"/>
					<polygon class="st3" points="103.9,-40.4 104,-40.5 107.8,-40.5 107.7,-40.4 					"/>
					<path class="st4" d="M103.9-40.4h3.8v0.1l5,8.7c-1,0.4-2.1,0.7-3.2,1L103.9-40.4L103.9-40.4z"/>
					<path class="st4" d="M92.5-40.4l4.5,8c-0.1,0-0.2-0.1-0.3-0.1c-1.8-0.9-3.5-1.8-5-2.5l-3-5.3v-0.1L92.5-40.4L92.5-40.4z"/>
					<path class="st4" d="M96.3-40.4h3.8v0.1l5.6,9.8l-5.6-9.8v-0.1h3.8v0.1l5.5,9.7c-2.3,0.5-4.9,0.5-7.6-0.1L96.3-40.4L96.3-40.4z
						"/>
					<path class="st4" d="M91.7-35C84.8-38.5,81-40.4,81-40.4h7.7v0.1L91.7-35z"/>
					<path class="st4" d="M92.5-40.4h3.8v0.1l5.5,9.6c-1.5-0.3-3.1-0.9-4.8-1.7L92.5-40.4L92.5-40.4z"/>
					<path class="st5" d="M81-40.5c0,0,4.4-0.2,8.7-4.3c0.6-0.6,1.3-1.1,2-1.7l-3,6H81z"/>
					<path class="st5" d="M92.5-40.5l4.4-8.9c1.3-0.5,2.8-0.9,4.3-1.1l-4.9,10H92.5z"/>
					<path class="st5" d="M88.7-40.5l3-6c1.5-1.1,3.2-2.1,5.2-2.9l-4.4,8.9H88.7z"/>
					<path class="st5" d="M104-40.5l4.6-9.4c1.1,0.3,2.1,0.7,3.2,1.2l-4,8.2H104z"/>
					<path class="st5" d="M96.3-40.5l4.9-10c1.2-0.2,2.5-0.2,3.8-0.1l-4.9,10.1H96.3z"/>
					<path class="st5" d="M100.2-40.5l4.9-10.1c1.1,0.1,2.3,0.3,3.5,0.6l-4.6,9.4L100.2-40.5L100.2-40.5z"/>
				</g>
				<g>
					<polygon class="st3" points="96.3,-20.9 96.3,-21 100.2,-21 100.1,-20.9 					"/>
					<polygon class="st3" points="92.5,-20.9 92.5,-21 96.3,-21 96.3,-20.9 					"/>
					<polygon class="st3" points="100.1,-20.9 100.2,-21 104,-21 103.9,-20.9 					"/>
					<polygon class="st3" points="92.5,-20.9 88.7,-20.9 88.7,-21 92.5,-21 					"/>
					<polygon class="st3" points="103.9,-20.9 104,-21 107.8,-21 107.7,-20.9 					"/>
					<path class="st4" d="M103.9-20.9h3.8v0.1l5,8.7c-1,0.4-2.1,0.7-3.2,1L103.9-20.9L103.9-20.9z"/>
					<path class="st4" d="M92.5-20.8l4.5,8c-0.1,0-0.2-0.1-0.3-0.1c-1.8-0.9-3.5-1.7-5-2.5l-3-5.3v-0.1H92.5L92.5-20.8z"/>
					<path class="st4" d="M96.3-20.9h3.8v0.1l5.6,9.8l-5.6-9.8v-0.1h3.8v0.1l5.5,9.7c-2.3,0.5-4.9,0.5-7.6-0.1L96.3-20.9L96.3-20.9z
						"/>
					<path class="st4" d="M91.7-15.5C84.8-19,81-20.9,81-20.9h7.7v0.1L91.7-15.5z"/>
					<path class="st4" d="M92.5-20.9h3.8v0.1l5.5,9.6c-1.5-0.3-3.1-0.9-4.8-1.7L92.5-20.9L92.5-20.9z"/>
					<path class="st5" d="M81-21c0,0,4.4-0.2,8.7-4.3c0.6-0.6,1.3-1.1,2-1.7l-3,6H81z"/>
					<path class="st5" d="M92.5-21l4.4-8.9c1.3-0.5,2.8-0.9,4.3-1.1l-4.9,10H92.5z"/>
					<path class="st5" d="M88.7-21l3-6c1.5-1.1,3.2-2.1,5.2-2.9L92.5-21H88.7z"/>
					<path class="st5" d="M104-21l4.6-9.4c1.1,0.3,2.1,0.7,3.2,1.2l-4,8.2C107.8-21,104-21,104-21z"/>
					<path class="st5" d="M96.3-21l4.9-10c1.2-0.2,2.5-0.2,3.8-0.1L100.1-21H96.3z"/>
					<path class="st5" d="M100.2-21l4.9-10.1c1.1,0.1,2.3,0.3,3.5,0.6l-4.6,9.4L100.2-21L100.2-21z"/>
				</g>
				<g>
					<polygon class="st3" points="42.8,-30.8 42.7,-30.7 38.9,-30.7 39,-30.8 					"/>
					<polygon class="st3" points="46.6,-30.8 46.5,-30.7 42.7,-30.7 42.8,-30.8 					"/>
					<polygon class="st3" points="39,-30.8 38.9,-30.7 35.1,-30.7 35.2,-30.8 					"/>
					<polygon class="st3" points="46.6,-30.8 50.4,-30.8 50.3,-30.7 46.5,-30.7 					"/>
					<polygon class="st3" points="27.6,-30.8 27.5,-30.7 23.7,-30.7 23.8,-30.8 					"/>
					<polygon class="st3" points="31.4,-30.8 31.3,-30.7 27.5,-30.7 27.6,-30.8 					"/>
					<polygon class="st3" points="35.2,-30.8 35.1,-30.7 31.3,-30.7 31.4,-30.8 					"/>
					<polygon class="st3" points="23.7,-30.7 19.9,-30.7 20,-30.8 23.8,-30.8 					"/>
					<path class="st1" d="M31.4-30.8h-3.8v-0.1l-4.1-7.3c0.9-0.5,1.9-1,3-1.5L31.4-30.8L31.4-30.8z"/>
					<path class="st1" d="M27.6-30.8h-3.8v-0.1l-3-5.3c0.8-0.7,1.7-1.3,2.7-1.9L27.6-30.8L27.6-30.8z"/>
					<path class="st1" d="M35.2-30.8h-3.8v-0.1l-5-8.7c1-0.4,2.1-0.7,3.2-1L35.2-30.8L35.2-30.8z"/>
					<path class="st1" d="M23.8-30.8H20v-0.1L18.2-34c0.4-0.4,0.9-0.7,1.3-1.2c0.4-0.4,0.8-0.7,1.2-1.1L23.8-30.8L23.8-30.8z"/>
					<path class="st1" d="M20-30.8h-9.1c0,0,3.6-0.2,7.3-3.2L20-30.8L20-30.8z"/>
					<path class="st1" d="M46.6-30.9l-4.5-8c0.1,0,0.2,0.1,0.3,0.1c1.8,0.9,3.5,1.7,5,2.5l3,5.3v0.1H46.6L46.6-30.9z"/>
					<path class="st1" d="M42.8-30.8H39v-0.1l-5.6-9.8l5.6,9.8v0.1h-3.8v-0.1l-5.5-9.7c2.3-0.5,4.9-0.5,7.6,0.1L42.8-30.8L42.8-30.8
						z"/>
					<path class="st1" d="M47.4-36.2c6.9,3.5,10.7,5.4,10.7,5.4h-7.7v-0.1L47.4-36.2z"/>
					<path class="st1" d="M46.6-30.8h-3.8v-0.1l-5.5-9.6c1.5,0.3,3.1,0.9,4.7,1.7L46.6-30.8L46.6-30.8z"/>
					<path class="st2" d="M10.9-30.7h9l-1.8,3.6C13.4-29.4,10.9-30.7,10.9-30.7z"/>
					<path class="st2" d="M21.2-25.5c-1.1-0.6-2.1-1.1-3.1-1.6l1.8-3.7h3.8L21.2-25.5z"/>
					<path class="st2" d="M58.1-30.7c0,0-4.4,0.2-8.7,4.3c-0.6,0.6-1.3,1.1-2,1.7l3-6H58.1z"/>
					<path class="st2" d="M46.5-30.7l-4.4,8.9c-1.3,0.5-2.8,0.9-4.3,1.1l4.9-10H46.5z"/>
					<path class="st2" d="M31.3-30.7l-4,8.2c-0.2-0.1-0.5-0.2-0.7-0.3c-0.8-0.4-1.6-0.8-2.4-1.2l3.3-6.7H31.3z"/>
					<path class="st2" d="M50.3-30.7l-3,6c-1.5,1.1-3.2,2.1-5.2,2.9l4.4-8.9H50.3z"/>
					<path class="st2" d="M23.7-30.7h3.8L24.2-24c-1.1-0.5-2.1-1-3.1-1.5L23.7-30.7z"/>
					<path class="st2" d="M35.1-30.7l-4.6,9.4c-1-0.3-2.1-0.7-3.2-1.2l4-8.2C31.3-30.7,35.1-30.7,35.1-30.7z"/>
					<path class="st2" d="M42.7-30.7l-4.9,10c-1.2,0.2-2.5,0.2-3.8,0.1l4.9-10.1H42.7z"/>
					<path class="st2" d="M38.9-30.7L34-20.6c-1.1-0.1-2.3-0.3-3.5-0.6l4.6-9.4L38.9-30.7L38.9-30.7z"/>
				</g>
				<g>
					<polygon class="st3" points="42.8,-10.4 42.7,-10.3 38.9,-10.3 39,-10.4 					"/>
					<polygon class="st3" points="46.6,-10.4 46.5,-10.3 42.7,-10.3 42.8,-10.4 					"/>
					<polygon class="st3" points="39,-10.4 38.9,-10.3 35.1,-10.3 35.2,-10.4 					"/>
					<polygon class="st3" points="46.6,-10.4 50.4,-10.4 50.3,-10.3 46.5,-10.3 					"/>
					<polygon class="st3" points="27.6,-10.4 27.5,-10.3 23.7,-10.3 23.8,-10.4 					"/>
					<polygon class="st3" points="31.4,-10.4 31.3,-10.3 27.5,-10.3 27.6,-10.4 					"/>
					<polygon class="st3" points="35.2,-10.4 35.1,-10.3 31.3,-10.3 31.4,-10.4 					"/>
					<polygon class="st3" points="23.7,-10.3 19.9,-10.3 20,-10.4 23.8,-10.4 					"/>
					<path class="st1" d="M31.4-10.4h-3.8v-0.1l-4.1-7.3c0.9-0.5,1.9-1,3-1.5L31.4-10.4L31.4-10.4z"/>
					<path class="st1" d="M27.6-10.4h-3.8v-0.1l-3-5.3c0.8-0.7,1.7-1.3,2.7-1.9L27.6-10.4L27.6-10.4z"/>
					<path class="st1" d="M35.2-10.4h-3.8v-0.1l-5-8.7c1-0.4,2.1-0.7,3.2-1L35.2-10.4L35.2-10.4z"/>
					<path class="st1" d="M23.8-10.4H20v-0.1l-1.8-3.1c0.4-0.4,0.9-0.7,1.3-1.2c0.4-0.4,0.8-0.7,1.2-1.1L23.8-10.4L23.8-10.4z"/>
					<path class="st1" d="M20-10.4h-9.1c0,0,3.6-0.2,7.3-3.2L20-10.4L20-10.4z"/>
					<path class="st1" d="M46.6-10.5l-4.5-8c0.1,0,0.2,0.1,0.3,0.1c1.8,0.9,3.5,1.7,5,2.5l3,5.3v0.1H46.6L46.6-10.5z"/>
					<path class="st1" d="M42.8-10.4H39v-0.1l-5.6-9.8l5.6,9.8v0.1h-3.8v-0.1l-5.5-9.7c2.3-0.5,4.9-0.5,7.6,0.1L42.8-10.4L42.8-10.4
						z"/>
					<path class="st1" d="M47.4-15.8c6.9,3.5,10.7,5.4,10.7,5.4h-7.7v-0.1L47.4-15.8z"/>
					<path class="st1" d="M46.6-10.4h-3.8v-0.1l-5.5-9.6c1.5,0.3,3.1,0.9,4.7,1.7L46.6-10.4L46.6-10.4z"/>
					<path class="st2" d="M10.9-10.3h9l-1.8,3.6C13.4-9,10.9-10.3,10.9-10.3z"/>
					<path class="st2" d="M21.2-5.1c-1.1-0.6-2.1-1.1-3.1-1.6l1.8-3.7h3.8L21.2-5.1z"/>
					<path class="st2" d="M58.1-10.3c0,0-4.4,0.2-8.7,4.3c-0.6,0.6-1.3,1.1-2,1.7l3-6H58.1z"/>
					<path class="st2" d="M46.5-10.3l-4.4,8.9c-1.3,0.5-2.8,0.9-4.3,1.1l4.9-10H46.5z"/>
					<path class="st2" d="M31.3-10.3l-4,8.2c-0.2-0.1-0.5-0.2-0.7-0.3c-0.8-0.4-1.6-0.8-2.4-1.2l3.3-6.7H31.3z"/>
					<path class="st2" d="M50.3-10.3l-3,6c-1.5,1.1-3.2,2.1-5.2,2.9l4.4-8.9H50.3z"/>
					<path class="st2" d="M23.7-10.3h3.8l-3.3,6.7c-1.1-0.5-2.1-1-3.1-1.5L23.7-10.3z"/>
					<path class="st2" d="M35.1-10.3l-4.6,9.4c-1-0.3-2.1-0.7-3.2-1.2l4-8.2C31.3-10.3,35.1-10.3,35.1-10.3z"/>
					<path class="st2" d="M42.7-10.3l-4.9,10c-1.2,0.2-2.5,0.2-3.8,0.1l4.9-10.1H42.7z"/>
					<path class="st2" d="M38.9-10.3L34-0.2c-1.1-0.1-2.3-0.3-3.5-0.6l4.6-9.4L38.9-10.3L38.9-10.3z"/>
				</g>
				<g>
					<polygon class="st6" points="89.2,-30.8 89.2,-30.7 85.4,-30.7 85.4,-30.8 					"/>
					<polygon class="st6" points="93,-30.8 93,-30.7 89.2,-30.7 89.2,-30.8 					"/>
					<polygon class="st6" points="85.4,-30.8 85.4,-30.7 81.6,-30.7 81.6,-30.8 					"/>
					<polygon class="st6" points="93,-30.8 96.8,-30.8 96.8,-30.7 93,-30.7 					"/>
					<polygon class="st6" points="74,-30.8 74,-30.7 70.2,-30.7 70.2,-30.8 					"/>
					<polygon class="st6" points="77.8,-30.8 77.8,-30.7 74,-30.7 74,-30.8 					"/>
					<polygon class="st6" points="81.6,-30.8 81.6,-30.7 77.8,-30.7 77.8,-30.8 					"/>
					<polygon class="st6" points="70.2,-30.7 66.4,-30.7 66.4,-30.8 70.2,-30.8 					"/>
					<path class="st1" d="M77.8-30.8H74v-0.1l-4.1-7.3c0.9-0.5,1.9-1,3-1.5L77.8-30.8L77.8-30.8z"/>
					<path class="st1" d="M74-30.8h-3.8v-0.1l-3-5.3c0.8-0.7,1.7-1.3,2.7-1.9L74-30.8L74-30.8z"/>
					<path class="st1" d="M81.6-30.8h-3.8v-0.1l-5-8.7c1-0.4,2.1-0.7,3.2-1L81.6-30.8L81.6-30.8z"/>
					<path class="st1" d="M70.2-30.8h-3.8v-0.1L64.6-34c0.4-0.4,0.9-0.7,1.3-1.2c0.4-0.4,0.8-0.7,1.2-1.1L70.2-30.8L70.2-30.8z"/>
					<path class="st1" d="M66.4-30.8h-9.1c0,0,3.6-0.2,7.3-3.2L66.4-30.8L66.4-30.8z"/>
					<path class="st1" d="M93.1-30.9l-4.5-8c0.1,0,0.2,0.1,0.3,0.1c1.8,0.9,3.5,1.7,5,2.5l3,5.3v0.1H93.1L93.1-30.9z"/>
					<path class="st1" d="M89.2-30.8h-3.8v-0.1l-5.6-9.8l5.6,9.8v0.1h-3.8v-0.1l-5.5-9.7c2.3-0.5,4.9-0.5,7.6,0.1L89.2-30.8
						L89.2-30.8z"/>
					<path class="st1" d="M93.8-36.2c6.9,3.5,10.7,5.4,10.7,5.4h-7.7v-0.1L93.8-36.2z"/>
					<path class="st1" d="M93-30.8h-3.8v-0.1l-5.5-9.6c1.5,0.3,3.1,0.9,4.7,1.7L93-30.8L93-30.8z"/>
					<path class="st2" d="M57.3-30.7h9L64.5-27C59.9-29.4,57.3-30.7,57.3-30.7z"/>
					<path class="st2" d="M67.6-25.5c-1.1-0.6-2.1-1.1-3.1-1.5l1.8-3.7h3.8L67.6-25.5z"/>
					<path class="st2" d="M104.5-30.7c0,0-4.4,0.2-8.7,4.3c-0.6,0.6-1.3,1.1-2,1.7l3-6H104.5z"/>
					<path class="st2" d="M93-30.7l-4.4,8.9c-1.3,0.5-2.8,0.9-4.3,1.1l4.9-10H93z"/>
					<path class="st2" d="M77.8-30.7l-4,8.2c-0.2-0.1-0.5-0.2-0.7-0.3c-0.8-0.4-1.6-0.8-2.4-1.2l3.3-6.7H77.8z"/>
					<path class="st2" d="M96.8-30.7l-3,6c-1.5,1.1-3.2,2.1-5.2,2.9l4.4-8.9H96.8z"/>
					<path class="st2" d="M70.2-30.7H74L70.7-24c-1.1-0.5-2.1-1.1-3.1-1.5L70.2-30.7z"/>
					<path class="st2" d="M81.6-30.7L77-21.3c-1.1-0.3-2.1-0.7-3.2-1.2l4-8.2C77.8-30.7,81.6-30.7,81.6-30.7z"/>
					<path class="st2" d="M89.2-30.7l-4.9,10c-1.2,0.2-2.5,0.2-3.8,0.1l4.9-10.1H89.2z"/>
					<path class="st2" d="M85.4-30.7l-4.9,10.1c-1.1-0.1-2.3-0.3-3.5-0.6l4.6-9.4L85.4-30.7L85.4-30.7z"/>
				</g>
				<g>
					<polygon class="st6" points="89.2,-10.4 89.2,-10.3 85.4,-10.3 85.4,-10.4 					"/>
					<polygon class="st6" points="93,-10.4 93,-10.3 89.2,-10.3 89.2,-10.4 					"/>
					<polygon class="st6" points="85.4,-10.4 85.4,-10.3 81.6,-10.3 81.6,-10.4 					"/>
					<polygon class="st6" points="93,-10.4 96.8,-10.4 96.8,-10.3 93,-10.3 					"/>
					<polygon class="st6" points="74,-10.4 74,-10.3 70.2,-10.3 70.2,-10.4 					"/>
					<polygon class="st6" points="77.8,-10.4 77.8,-10.3 74,-10.3 74,-10.4 					"/>
					<polygon class="st6" points="81.6,-10.4 81.6,-10.3 77.8,-10.3 77.8,-10.4 					"/>
					<polygon class="st6" points="70.2,-10.3 66.4,-10.3 66.4,-10.4 70.2,-10.4 					"/>
					<path class="st1" d="M77.8-10.4H74v-0.1l-4.1-7.3c0.9-0.5,1.9-1,3-1.5L77.8-10.4L77.8-10.4z"/>
					<path class="st1" d="M74-10.4h-3.8v-0.1l-3-5.3c0.8-0.7,1.7-1.3,2.7-1.9L74-10.4L74-10.4z"/>
					<path class="st1" d="M81.6-10.4h-3.8v-0.1l-5-8.7c1-0.4,2.1-0.7,3.2-1L81.6-10.4L81.6-10.4z"/>
					<path class="st1" d="M70.2-10.4h-3.8v-0.1l-1.8-3.1c0.4-0.4,0.9-0.7,1.3-1.2c0.4-0.4,0.8-0.7,1.2-1.1L70.2-10.4L70.2-10.4z"/>
					<path class="st1" d="M66.4-10.4h-9.1c0,0,3.6-0.2,7.3-3.2L66.4-10.4L66.4-10.4z"/>
					<path class="st1" d="M93.1-10.5l-4.5-8c0.1,0,0.2,0.1,0.3,0.1c1.8,0.9,3.5,1.7,5,2.5l3,5.3v0.1H93.1L93.1-10.5z"/>
					<path class="st1" d="M89.2-10.4h-3.8v-0.1l-5.6-9.8l5.6,9.8v0.1h-3.8v-0.1l-5.5-9.7c2.3-0.5,4.9-0.5,7.6,0.1L89.2-10.4
						L89.2-10.4z"/>
					<path class="st1" d="M93.8-15.8c6.9,3.5,10.7,5.4,10.7,5.4h-7.7v-0.1L93.8-15.8z"/>
					<path class="st1" d="M93-10.4h-3.8v-0.1l-5.5-9.6c1.5,0.3,3.1,0.9,4.7,1.7L93-10.4L93-10.4z"/>
					<path class="st2" d="M57.3-10.3h9l-1.8,3.7C59.9-9,57.3-10.3,57.3-10.3z"/>
					<path class="st2" d="M67.6-5.1c-1.1-0.6-2.1-1.1-3.1-1.5l1.8-3.7h3.8L67.6-5.1z"/>
					<path class="st2" d="M104.5-10.3c0,0-4.4,0.2-8.7,4.3c-0.6,0.6-1.3,1.1-2,1.7l3-6H104.5z"/>
					<path class="st2" d="M93-10.3l-4.4,8.9c-1.3,0.5-2.8,0.9-4.3,1.1l4.9-10H93z"/>
					<path class="st2" d="M77.8-10.3l-4,8.2c-0.2-0.1-0.5-0.2-0.7-0.3c-0.8-0.4-1.6-0.8-2.4-1.2l3.3-6.7H77.8z"/>
					<path class="st2" d="M96.8-10.3l-3,6c-1.5,1.1-3.2,2.1-5.2,2.9l4.4-8.9H96.8z"/>
					<path class="st2" d="M70.2-10.3H74l-3.3,6.7c-1.1-0.5-2.1-1.1-3.1-1.5L70.2-10.3z"/>
					<path class="st2" d="M81.6-10.3L77-0.9c-1.1-0.3-2.1-0.7-3.2-1.2l4-8.2C77.8-10.3,81.6-10.3,81.6-10.3z"/>
					<path class="st2" d="M89.2-10.3l-4.9,10c-1.2,0.2-2.5,0.2-3.8,0.1l4.9-10.1H89.2z"/>
					<path class="st2" d="M85.4-10.3L80.5-0.2c-1.1-0.1-2.3-0.3-3.5-0.6l4.6-9.4L85.4-10.3L85.4-10.3z"/>
				</g>
			</g>
			<g>
				<g>
					<polygon class="st3" points="6.8,-40.4 6.9,-40.5 10.7,-40.5 10.6,-40.4 					"/>
					<polygon class="st3" points="18.2,-40.4 18.3,-40.5 22.1,-40.5 22,-40.4 					"/>
					<polygon class="st3" points="14.4,-40.4 14.5,-40.5 18.3,-40.5 18.2,-40.4 					"/>
					<polygon class="st3" points="10.6,-40.4 10.7,-40.5 14.5,-40.5 14.4,-40.4 					"/>
					<polygon class="st3" points="22.1,-40.5 25.9,-40.5 25.8,-40.4 22,-40.4 					"/>
					<path class="st4" d="M14.4-40.4h3.8v0.1l4.1,7.3c-0.9,0.5-1.9,1-3,1.5L14.4-40.4L14.4-40.4z"/>
					<path class="st4" d="M18.2-40.4H22v0.1l3,5.3c-0.8,0.7-1.7,1.3-2.7,1.9L18.2-40.4L18.2-40.4z"/>
					<path class="st4" d="M10.6-40.4h3.8v0.1l5,8.7c-1,0.4-2.1,0.7-3.2,1L10.6-40.4L10.6-40.4z"/>
					<path class="st4" d="M22-40.4h3.8v0.1l1.8,3.1c-0.4,0.3-0.9,0.7-1.3,1.2c-0.4,0.4-0.8,0.7-1.2,1.1L22-40.4L22-40.4z"/>
					<path class="st4" d="M25.8-40.4h9.1c0,0-3.6,0.2-7.3,3.2L25.8-40.4L25.8-40.4z"/>
					<path class="st4" d="M3-40.4h3.8v0.1l5.6,9.8l-5.6-9.8v-0.1h3.8v0.1l5.5,9.7c-2.3,0.5-4.9,0.5-7.6-0.1L3-40.4L3-40.4z"/>
					<path class="st5" d="M34.9-40.5h-9l1.8-3.7C32.4-41.8,34.9-40.5,34.9-40.5z"/>
					<path class="st5" d="M24.6-45.7c1.1,0.6,2.1,1.1,3.1,1.5l-1.8,3.7h-3.8L24.6-45.7z"/>
					<path class="st5" d="M14.5-40.5l4-8.2c0.2,0.1,0.5,0.2,0.7,0.3c0.8,0.4,1.6,0.8,2.4,1.2l-3.3,6.7H14.5z"/>
					<path class="st5" d="M22.1-40.5h-3.8l3.3-6.7c1.1,0.5,2.1,1,3.1,1.5L22.1-40.5z"/>
					<path class="st5" d="M10.7-40.5l4.6-9.4c1.1,0.3,2.1,0.7,3.2,1.2l-4,8.2H10.7z"/>
					<path class="st5" d="M3.1-40.5l4.9-10c1.2-0.2,2.5-0.2,3.8-0.1L6.9-40.5H3.1z"/>
					<path class="st5" d="M6.9-40.5l4.9-10.1c1.1,0.1,2.3,0.3,3.5,0.6l-4.6,9.4L6.9-40.5L6.9-40.5z"/>
				</g>
				<g>
					<polygon class="st3" points="6.8,-20.9 6.9,-21 10.7,-21 10.6,-20.9 					"/>
					<polygon class="st3" points="18.2,-20.9 18.3,-21 22.1,-21 22,-20.9 					"/>
					<polygon class="st3" points="14.4,-20.9 14.5,-21 18.3,-21 18.2,-20.9 					"/>
					<polygon class="st3" points="10.6,-20.9 10.7,-21 14.5,-21 14.4,-20.9 					"/>
					<polygon class="st3" points="22.1,-21 25.9,-21 25.8,-20.9 22,-20.9 					"/>
					<path class="st4" d="M14.4-20.9h3.8v0.1l4.1,7.3c-0.9,0.5-1.9,1-3,1.5L14.4-20.9L14.4-20.9z"/>
					<path class="st4" d="M18.2-20.9H22v0.1l3,5.3c-0.8,0.7-1.7,1.3-2.7,1.9L18.2-20.9L18.2-20.9z"/>
					<path class="st4" d="M10.6-20.9h3.8v0.1l5,8.7c-1,0.4-2.1,0.7-3.2,1L10.6-20.9L10.6-20.9z"/>
					<path class="st4" d="M22-20.9h3.8v0.1l1.8,3.1c-0.4,0.3-0.9,0.7-1.3,1.2c-0.4,0.4-0.8,0.7-1.2,1.1L22-20.9L22-20.9z"/>
					<path class="st4" d="M25.8-20.9h9.1c0,0-3.6,0.2-7.3,3.2L25.8-20.9L25.8-20.9z"/>
					<path class="st4" d="M3-20.9h3.8v0.1l5.6,9.8l-5.6-9.8v-0.1h3.8v0.1l5.5,9.7c-2.3,0.5-4.9,0.5-7.6-0.1L3-20.9L3-20.9z"/>
					<path class="st5" d="M34.9-21h-9l1.8-3.7C32.4-22.3,34.9-21,34.9-21z"/>
					<path class="st5" d="M24.6-26.2c1.1,0.6,2.1,1.1,3.1,1.5L25.9-21h-3.8L24.6-26.2z"/>
					<path class="st5" d="M14.5-21l4-8.2c0.2,0.1,0.5,0.2,0.7,0.3c0.8,0.4,1.6,0.8,2.4,1.2L18.3-21H14.5z"/>
					<path class="st5" d="M22.1-21h-3.8l3.3-6.7c1.1,0.5,2.1,1,3.1,1.5L22.1-21z"/>
					<path class="st5" d="M10.7-21l4.6-9.4c1.1,0.3,2.1,0.7,3.2,1.2l-4,8.2C14.5-21,10.7-21,10.7-21z"/>
					<path class="st5" d="M3.1-21L8-31c1.2-0.2,2.5-0.2,3.8-0.1L6.9-21H3.1z"/>
					<path class="st5" d="M6.9-21l4.9-10.1c1.1,0.1,2.3,0.3,3.5,0.6l-4.6,9.4L6.9-21L6.9-21z"/>
				</g>
				<g>
					<path class="st1" d="M0.5-36.2c6.9,3.5,10.7,5.4,10.7,5.4H3.6v-0.1L0.5-36.2z"/>
					<path class="st2" d="M11.2-30.7c0,0-4.4,0.2-8.7,4.3c-0.6,0.6-1.3,1.1-2,1.7l3-6H11.2z"/>
				</g>
				<g>
					<path class="st1" d="M0.5-15.8c6.9,3.5,10.7,5.4,10.7,5.4H3.6v-0.1L0.5-15.8z"/>
					<path class="st2" d="M11.2-10.3c0,0-4.4,0.2-8.7,4.3c-0.6,0.6-1.3,1.1-2,1.7l3-6H11.2z"/>
				</g>
			</g>
		</g>
	</g>
</pattern>
<g id="grass_1_">
	<path class="st7" d="M0.2,97.5v155.6h1024V89.6c0,0-336.7-117.2-764.2,34C260,123.6,77,227.5,0.2,97.5z"/>
	<g class="st8">
		<pattern  id="SVGID_2_" xlink:href="#SVGID_1_" patternTransform="matrix(1 0 0 -1 -117.6857 -17235.0469)"  class="st8">
		</pattern>
		<path class="st9" d="M0.2,97.5v155.6h1024V89.6c0,0-336.7-117.2-764.2,34C260,123.6,77,227.5,0.2,97.5z"/>
	</g>
	<path class="st10" d="M0.2,252.2v-72.8c0,0,261.9-102.3,621.9-29.5s401.1,38.1,401.1,38.1v64.2H0.2z"/>
	<path class="st11" d="M0.2,204c0,0,218.6-99.5,490.6-25.4s533.4,37.5,533.4,37.5v37.1L0,252.4L0.2,204z"/>
</g>
</svg>
