<?xml version="1.0" encoding="utf-8"?>
<!-- Generator: Adobe Illustrator 19.2.0, SVG Export Plug-In . SVG Version: 6.00 Build 0)  -->
<svg version="1.1" id="Layer_1" xmlns="http://www.w3.org/2000/svg" xmlns:xlink="http://www.w3.org/1999/xlink" x="0px" y="0px"
	 viewBox="0 0 149.2 149.2" style="enable-background:new 0 0 149.2 149.2;" xml:space="preserve">
<style type="text/css">
	.st0{fill:#0288D1;}
	.st1{opacity:0.25;}
</style>
<g>
	<path class="st0" d="M74.6,149.2C33.5,149.2,0,115.8,0,74.6S33.5,0,74.6,0s74.6,33.5,74.6,74.6S115.8,149.2,74.6,149.2z M74.6,4.8
		C36.1,4.8,4.8,36.1,4.8,74.6s31.3,69.8,69.8,69.8s69.8-31.3,69.8-69.8S113.1,4.8,74.6,4.8z"/>
</g>
<g>
	<rect x="2.4" y="73" class="st0" width="144.5" height="3.2"/>
</g>
<g>
	<rect x="2.4" y="73" transform="matrix(0.5891 -0.8081 0.8081 0.5891 -29.5973 90.9488)" class="st0" width="144.5" height="3.2"/>
</g>
<g>
	<rect x="73" y="2.4" transform="matrix(0.8365 -0.5479 0.5479 0.8365 -28.7036 53.0878)" class="st0" width="3.2" height="144.5"/>
</g>
<g>
	<circle class="st0" cx="74.6" cy="74.6" r="5.4"/>
</g>
<g>
	<path class="st0" d="M74.6,113c-21.2,0-38.4-17.2-38.4-38.4s17.2-38.4,38.4-38.4S113,53.4,113,74.6S95.8,113,74.6,113z M74.6,40.2
		c-19,0-34.4,15.4-34.4,34.4S55.6,109,74.6,109S109,93.6,109,74.6S93.6,40.2,74.6,40.2z"/>
</g>
<g>
	<path class="st0" d="M74.6,93.5c-10.4,0-18.9-8.5-18.9-18.9s8.5-18.9,18.9-18.9s18.9,8.5,18.9,18.9S85,93.5,74.6,93.5z M74.6,59.7
		c-8.2,0-14.9,6.7-14.9,14.9s6.7,14.9,14.9,14.9s14.9-6.7,14.9-14.9S82.8,59.7,74.6,59.7z"/>
</g>
<g class="st1">
	<g>
		<path class="st0" d="M74.6,69.2V80c3,0,5.4-2.4,5.4-5.4S77.6,69.2,74.6,69.2z"/>
	</g>
</g>
</svg>
